<?xml version="1.0" encoding="UTF-8"?>
<svg id="Layer_2" data-name="Layer 2" xmlns="http://www.w3.org/2000/svg" viewBox="0 0 27.86 28.24">
  <defs>
    <style>
      .cls-1 {
        fill: #fdb614;
      }
    </style>
  </defs>
  <g id="Layer_1-2" data-name="Layer 1">
    <g>
      <path class="cls-1" d="M20.52,22.65c-1.88,3.33-5.46,5.59-9.55,5.59-6.05,0-10.96-4.91-10.96-10.96,0-2.93,1.15-5.6,3.02-7.56-.89,1.58-1.39,3.41-1.39,5.35,0,6.05,4.91,10.96,10.97,10.96,3.11,0,5.92-1.3,7.91-3.38Z"/>
      <polygon class="cls-1" points="9.82 6.31 10.7 6.31 10.26 0 9.82 6.31 9.82 6.31"/>
      <polygon class="cls-1" points="3.92 8.73 4.59 8.16 .2 3.62 3.92 8.73 3.92 8.73"/>
      <polygon class="cls-1" points="21.92 20.88 21.48 21.64 27.16 24.41 21.92 20.88 21.92 20.88"/>
      <polygon class="cls-1" points="21.57 14.24 21.72 15.1 27.86 13.58 21.57 14.24 21.57 14.24"/>
      <polygon class="cls-1" points="17.14 8.13 17.81 8.7 21.53 3.59 17.14 8.13 17.14 8.13"/>
    </g>
  </g>
</svg>