<?xml version="1.0" encoding="UTF-8"?>
<svg id="Layer_2" data-name="Layer 2" xmlns="http://www.w3.org/2000/svg" viewBox="0 0 216 80.98">
  <defs>
    <style>
      .cls-1 {
        fill: #010101;
      }
    </style>
  </defs>
  <g id="Layer_1-2" data-name="Layer 1">
    <g>
      <g>
        <path class="cls-1" d="M40,0h2.1v26.96h16.61v1.9h-18.71V0Z"/>
        <path class="cls-1" d="M66.09,19.04V5.65h2.06v13.31c0,5.52,2.72,8.24,7.5,8.24s7.46-2.68,7.46-8.24V5.65h2.06v13.4c0,6.55-3.59,10.02-9.52,10.02s-9.56-3.46-9.56-10.02Z"/>
        <path class="cls-1" d="M116.54,5.65v23.21h-1.73l-15.62-19.62v19.62h-2.06V5.65h1.73l15.58,19.58V5.65h2.1Z"/>
        <path class="cls-1" d="M143.75,22.42h-13.48l-2.97,6.43h-2.1l10.76-23.21h2.06l10.8,23.21h-2.14l-2.93-6.43ZM142.93,20.69l-5.94-12.94-5.94,12.94h11.87Z"/>
        <path class="cls-1" d="M173.69,28.85l-5.52-7.63c-.66.08-1.36.12-2.06.12h-6.55v7.5h-2.06V5.65h8.62c5.9,0,9.52,2.89,9.52,7.87,0,3.67-2.02,6.23-5.48,7.3l5.85,8.04h-2.31ZM173.52,13.52c0-3.87-2.6-6.06-7.5-6.06h-6.47v12.16h6.47c4.91,0,7.5-2.23,7.5-6.1Z"/>
      </g>
      <g>
        <path class="cls-1" d="M0,77.07l.95-1.57c1.98,2.06,5.65,3.63,9.52,3.63,5.77,0,8.33-2.52,8.33-5.65,0-8.66-18.01-3.46-18.01-14.1,0-4.08,3.13-7.67,10.22-7.67,3.17,0,6.47.99,8.7,2.6l-.78,1.69c-2.39-1.65-5.32-2.43-7.91-2.43-5.61,0-8.12,2.6-8.12,5.77,0,8.66,18.01,3.54,18.01,14.01,0,4.08-3.26,7.63-10.39,7.63-4.29,0-8.41-1.61-10.51-3.92Z"/>
        <path class="cls-1" d="M63.85,57.57h2.06v21.43h13.36v1.77h-15.42v-23.21Z"/>
        <path class="cls-1" d="M104.35,74.34h-13.48l-2.97,6.43h-2.1l10.76-23.21h2.06l10.8,23.21h-2.14l-2.93-6.43ZM103.52,72.61l-5.94-12.94-5.94,12.94h11.87Z"/>
        <path class="cls-1" d="M134.28,80.78l-5.52-7.63c-.66.08-1.36.12-2.06.12h-6.55v7.5h-2.06v-23.21h8.62c5.89,0,9.52,2.89,9.52,7.87,0,3.67-2.02,6.23-5.48,7.3l5.85,8.04h-2.31ZM134.12,65.44c0-3.87-2.6-6.06-7.5-6.06h-6.47v12.16h6.47c4.91,0,7.5-2.23,7.5-6.1Z"/>
        <path class="cls-1" d="M146.84,57.57h2.06v23.21h-2.06v-23.21Z"/>
        <path class="cls-1" d="M160.81,70.97v-13.4h2.06v13.31c0,5.52,2.72,8.24,7.5,8.24s7.46-2.68,7.46-8.24v-13.31h2.06v13.4c0,6.55-3.59,10.02-9.52,10.02s-9.56-3.46-9.56-10.02Z"/>
        <path class="cls-1" d="M216,57.57v23.21h-2.02v-19.33l-9.56,16.28h-.99l-9.56-16.08v19.13h-2.02v-23.21h1.77l10.35,17.56,10.22-17.56h1.81Z"/>
        <g>
          <path class="cls-1" d="M49.63,75.39c-1.88,3.33-5.46,5.59-9.55,5.59-6.05,0-10.96-4.91-10.96-10.96,0-2.93,1.15-5.6,3.02-7.56-.89,1.58-1.39,3.41-1.39,5.35,0,6.05,4.91,10.96,10.97,10.96,3.11,0,5.92-1.3,7.91-3.38Z"/>
          <polygon class="cls-1" points="38.93 59.05 39.81 59.05 39.37 52.74 38.93 59.05 38.93 59.05"/>
          <polygon class="cls-1" points="33.03 61.47 33.71 60.9 29.32 56.36 33.03 61.47 33.03 61.47"/>
          <polygon class="cls-1" points="51.04 73.62 50.6 74.38 56.28 77.15 51.04 73.62 51.04 73.62"/>
          <polygon class="cls-1" points="50.68 66.98 50.84 67.84 56.97 66.32 50.68 66.98 50.68 66.98"/>
          <polygon class="cls-1" points="46.25 60.87 46.93 61.44 50.64 56.32 46.25 60.87 46.25 60.87"/>
        </g>
      </g>
    </g>
  </g>
</svg>