<svg id="SvgjsSvg1026" width="288" height="288" xmlns="http://www.w3.org/2000/svg" version="1.1" xmlns:xlink="http://www.w3.org/1999/xlink" xmlns:svgjs="http://svgjs.com/svgjs"><circle id="SvgjsCircle1037" r="144" cx="144" cy="144" transform="matrix(0.49,0,0,0.49,73.44,73.44)" fill="#fefefe"></circle><defs id="SvgjsDefs1027"></defs><g id="SvgjsG1028" transform="matrix(0.37999999999999995,0,0,0.37999999999999995,89.28,89.28)"><svg xmlns="http://www.w3.org/2000/svg" viewBox="0 0 48 48" width="288" height="288"><path d="M31 2H15c-2.76 0-5 2.24-5 5v34c0 2.76 2.24 5 5 5h16c2.76 0 5-2.24 5-5V7c0-2.76-2.24-5-5-5zm-8 42c-1.66 0-3-1.34-3-3s1.34-3 3-3 3 1.34 3 3-1.34 3-3 3zm9-8H14V8h18v28z" fill="#010101" class="svgShape color000000-0 selectable"></path><path fill="none" d="M0 0h48v48H0z" class="selectable"></path></svg></g></svg>