<?xml version="1.0" encoding="UTF-8"?>
<svg id="Layer_2" data-name="Layer 2" xmlns="http://www.w3.org/2000/svg" viewBox="0 0 409 396.22">
  <defs>
    <style>
      .cls-1 {
        stroke-width: .72px;
      }

      .cls-1, .cls-2 {
        fill: none;
        stroke: #3951a3;
        stroke-miterlimit: 10;
      }

      .cls-2 {
        stroke-width: 1.06px;
      }

      .cls-3 {
        fill: #c2c4ad;
      }

      .cls-4 {
        opacity: .62;
      }

      .cls-4, .cls-5 {
        fill: #c2c4ac;
      }

      .cls-6 {
        fill: #fff;
      }

      .cls-7 {
        fill: #c2c4a8;
      }

      .cls-8 {
        fill: #a3ab87;
      }
    </style>
  </defs>
  <g id="Layer_1-2" data-name="Layer 1">
    <g>
      <path class="cls-4" d="M262.43,65.43c0,13.63-11.04,24.68-24.67,24.68-2.54,0-5-.38-7.31-1.1,4.86-5.75,11.89-8.89,19.28-9.19-.18-7.29,1.9-14.59,6.41-20.82,1.16-1.59,2.43-3.06,3.8-4.39,1.59,3.27,2.49,6.94,2.49,10.82Z"/>
      <path class="cls-4" d="M278.51,121.55c.01-1.8.18-3.56.48-5.28,2.54.77,4.93,1.89,7.11,3.31,5.23-11.43,16.77-19.36,30.16-19.36.92,0,1.84.04,2.74.12-.56.98-1.18,1.94-1.86,2.88-1.64,2.27-3.52,4.29-5.6,6.01.3.38.58.77.86,1.17,6.7,9.56,7.23,22.24.38,31.69-1.78,2.45-3.91,4.49-6.29,6.12h-.01c-.84.58-1.71,1.1-2.61,1.57-.52.26-1.04.52-1.58.75-.27.12-.55.24-.83.34-.74.31-1.49.57-2.25.79h-.01c-.33.11-.66.2-1,.29-.22.06-.44.11-.66.16-1.48.35-3,.58-4.54.68-1.2.08-2.41.08-3.62,0h-.01c-5.48-.32-11-2.2-15.87-5.73-4.84-3.51-8.34-8.14-10.36-13.22-2.56.85-5.26,1.32-8.01,1.4,4.03-8.13,12.41-13.72,22.1-13.72.43,0,.86,0,1.28.03Z"/>
      <path class="cls-4" d="M322.38,92.21c-3.7-1.5-7.74-2.32-11.97-2.32-15.74,0-28.81,11.39-31.42,26.38-2.6-.79-5.35-1.22-8.21-1.22-12.15,0-22.49,7.68-26.46,18.44-2.63-.95-5.2-2.29-7.6-4.03-2.53-1.84-4.7-3.98-6.48-6.33-1.88-2.49-3.33-5.21-4.32-8.05-2.09-5.97-2.17-12.45,0-18.33.32-.9.7-1.79,1.14-2.65.61-1.22,1.33-2.4,2.15-3.53.33-.45.67-.89,1.03-1.32v6.37c3.97,1.65,8.34,2.56,12.94,2.56,18.1,0,32.77-14.13,32.77-31.55,0-6.96-2.34-13.38-6.3-18.6,11.66-5.24,26.17-4.02,37.78,4.4,13.23,9.58,18.75,25.65,14.95,39.78Z"/>
      <line class="cls-2" x1="108.41" y1="172.86" x2="108.4" y2="172.86"/>
      <line class="cls-2" x1="103.96" y1="173.49" x2="103.95" y2="173.49"/>
      <path class="cls-4" d="M202.56,77.64c-.5-3.12-1.58-6.14-3.23-8.91-.13-.22-.27-.44-.42-.66-.2-.35-.43-.69-.68-1.02-.93-1.32-2.01-2.57-3.22-3.71h-.01c-.26-.27-.51-.49-.78-.73-.26-.23-.52-.45-.79-.66-1.04-.85-2.13-1.59-3.26-2.24-1.54-.88-3.15-1.59-4.8-2.12-8.72-2.83-18.58-.75-25.45,5.93-.66-.57-1.34-1.11-2.03-1.61,3.86,8.57,12.48,14.54,22.5,14.54,3.07,0,6.01-.56,8.72-1.59v6.95c-4.24,2.85-9.33,4.51-14.82,4.51-14.7,0-26.62-11.92-26.62-26.62,0-.97.05-1.93.16-2.87-12.29-3.77-26.18-.27-35.18,10.02-9.12,10.45-10.62,24.96-4.95,36.72,10.73,2.09,19.25,9.17,23.38,18.27.94,2.07,1.66,4.24,2.11,6.48.2-.02.39-.02.59-.03,1.46-.05,2.94.05,4.44.3,9.69,1.62,16.84,9.17,18.14,18.12,7.65.56,15.45-2.37,20.89-8.59,7.81-8.95,8.2-21.83,1.69-31.14,3.52-.19,6.99-1.11,10.17-2.76,1.52-.76,2.96-1.69,4.32-2.8,1.14-.9,2.22-1.94,3.22-3.08.57-.65,1.1-1.32,1.58-2.01,2.3-3.24,3.74-6.87,4.33-10.6.44-2.68.44-5.42,0-8.09ZM193.43,78.19v-5.46c1.77-1.1,3.38-2.42,4.8-3.92v2.53c-1.23,2.54-2.86,4.85-4.8,6.85Z"/>
      <path class="cls-4" d="M80.12,216.59c1.44,0,2.86-.09,4.24-.28-1.95,1.41-4.13,2.57-6.52,3.41-11.21,3.92-23.32-.51-29.53-10.02-2.79,5.99-7.89,10.88-14.61,13.23-13.21,4.62-27.65-2.34-32.27-15.54-4.39-12.55,1.67-26.21,13.62-31.51-6.01-17.46,3.22-36.52,20.67-42.63,6.93-2.42,14.11-2.44,20.65-.5-2.56,4.75-3.81,10.35-3.28,16.22.66,7.35,3.98,13.79,8.87,18.33-7.06,5.02-11.61,12.91-11.61,21.78,0,15.19,13.33,27.51,29.77,27.51Z"/>
      <path class="cls-4" d="M93.59,203.53c-.16.51-.34,1.02-.54,1.52-1.19.2-2.41.3-3.66.3-12.72,0-23.04-10.31-23.04-23.03,0-3.73.89-7.26,2.47-10.38.84-1.68,1.89-3.23,3.12-4.64h0c-.85-1.27-1.61-2.59-2.27-3.97-2.13-4.37-3.32-9.27-3.32-14.46,0-3.51.55-6.9,1.56-10.07,1.33,1.07,2.58,2.24,3.74,3.51-1.34,6.99-.37,13.89,2.37,19.85.34.71.69,1.41,1.08,2.1,1.31,2.39,2.93,4.59,4.81,6.55,1.1,1.16,2.29,2.23,3.57,3.2.53.41,1.08.8,1.65,1.17-.09.18-.16.36-.24.54-.35.79-.65,1.6-.91,2.45-.18.58-.33,1.17-.46,1.78-2.11,9.59,2.24,19.05,10.07,23.58Z"/>
      <path class="cls-4" d="M340.94,170.88c0,10.93-7.11,20.2-16.95,23.44,3.53-4.16,5.54-9.72,5.18-15.7-.09-1.52-.32-2.98-.69-4.39-.06-.19-.1-.38-.16-.57,2.08-.94,4.04-2.12,5.84-3.5.22-.17.44-.34.65-.51,1.95-1.56,3.7-3.36,5.23-5.35.31,1.06.53,2.15.67,3.26.15,1.09.23,2.19.23,3.32Z"/>
      <path class="cls-4" d="M346.71,146.53c.07-1.07.09-2.15.05-3.24.48-.38.97-.76,1.48-1.11-.41,1.49-.92,2.95-1.53,4.35Z"/>
      <path class="cls-4" d="M405.98,218.51c-6.62,12.32-21.97,16.95-34.3,10.33-6.27-3.37-10.54-8.99-12.36-15.34-7.63,8.42-20.27,10.91-30.74,5.29-3.87-2.08-6.98-5.02-9.22-8.46,4.9,1.35,10.23,1.4,15.47-.14,14.94-4.41,23.48-20.09,19.07-35.03-1.33-4.52-3.69-8.45-6.75-11.61,7.29-5.84,11.96-14.82,11.96-24.89,0-.53-.01-1.06-.04-1.58,7.98-2.13,16.75-1.36,24.59,2.86,16.28,8.75,22.43,29.02,13.78,45.33,10.97,7.09,14.83,21.53,8.54,33.24Z"/>
      <line class="cls-1" x1="134.54" y1="178.88" x2="134.53" y2="178.88"/>
      <path class="cls-6" d="M200.91,59.7c0,1.77-.17,3.5-.51,5.17-.12.66-.28,1.32-.47,1.96-.17.65-.37,1.28-.6,1.9-.31.9-.68,1.77-1.1,2.61v-2.53c-1.42,1.5-3.03,2.82-4.8,3.92v5.46c-1.3,1.36-2.75,2.57-4.32,3.62v-6.95c-2.71,1.03-5.65,1.59-8.72,1.59-10.02,0-18.64-5.97-22.5-14.54-1.4-3.09-2.18-6.52-2.18-10.14,0-5.65,1.89-10.84,5.09-15,3.86-2.29,8.35-3.62,13.14-3.67.12-.01.23-.01.35-.01,14.52,0,26.33,11.63,26.61,26.08.01.17.01.35.01.53Z"/>
      <path class="cls-6" d="M262.43,65.43c0,13.63-11.04,24.68-24.67,24.68-2.54,0-5-.38-7.31-1.1-.08.08-.15.16-.21.24v6.37c-1.09-.45-2.16-.96-3.18-1.52-.39-.21-.77-.43-1.14-.66v-6.36c-1.49-.8-2.88-1.77-4.15-2.86v6.29c-1.59-1.32-3.03-2.78-4.33-4.36v-6.71c-2.75-3.98-4.36-8.8-4.36-14.01,0-.19,0-.39.01-.58-.42.08-.83.16-1.25.22v10.78c-.92-2.92-1.42-6.01-1.42-9.22,0-.46,0-.92.03-1.37.09-2.01.38-3.98.84-5.88,3.11-12.76,14.27-22.53,28.03-24.08-.14,1.87-.45,3.7-.89,5.47,9.46.24,17.59,5.82,21.51,13.84,1.59,3.27,2.49,6.94,2.49,10.82Z"/>
      <path class="cls-6" d="M342.31,121.79c0,11.4-5.98,21.4-14.97,27.04-4.9,3.08-10.71,4.86-16.93,4.86-1.92,0-3.81-.17-5.64-.5-1.23-.22-2.45-.51-3.63-.87-.28-.08-.54-.17-.82-.27h-.01c-.37-.11-.74-.24-1.1-.39h-.01c-.45-.17-.9-.35-1.35-.54-.01,0-.01-.01-.01-.01-.74-.31-1.46-.65-2.17-1.03-4.92-2.56-9.08-6.37-12.08-11.01-3.21-4.98-5.08-10.91-5.08-17.28v-.24c.01-1.8.18-3.56.48-5.28,2.54.77,4.93,1.89,7.11,3.31,5.23-11.43,16.77-19.36,30.16-19.36.92,0,1.84.04,2.74.12,7.51.61,14.32,3.72,19.58,8.51.41.15.81.31,1.21.49.16.38.31.75.45,1.13,1.34,3.52,2.07,7.33,2.07,11.32Z"/>
      <path class="cls-6" d="M349.42,133.38c0,3.05-.41,6-1.18,8.8-.41,1.49-.92,2.95-1.53,4.35h0c-1.83,4.24-4.51,8-7.83,11.1-.38.36-.77.7-1.17,1.04,1,1.75,1.79,3.64,2.33,5.63.31,1.06.53,2.15.67,3.26-1.87.89-3.85,1.59-5.9,2.09-2.43.59-4.98.91-7.6.91-5.93,0-11.48-1.62-16.24-4.44-1.44-.85-2.81-1.82-4.09-2.88-.99-.82-1.93-1.7-2.81-2.64-1.5-1.56-2.82-3.28-3.97-5.12-.43-.69-.83-1.4-1.21-2.13-.24-.46-.47-.93-.69-1.4-.12-.27-.24-.54-.35-.82h0s-.01-.02-.01-.02c-.3-.69-.58-1.41-.82-2.13-1.11-3.24-1.71-6.71-1.71-10.32,0-2.61.31-5.14.91-7.57.03-.17.08-.34.12-.5,2.29-8.77,8.21-16.07,16.06-20.19,4.42-2.32,9.46-3.64,14.81-3.64,4.01,0,7.84.74,11.37,2.09.41.15.81.31,1.21.49.16.38.31.75.45,1.13,5.69,5.95,9.18,14.02,9.18,22.91Z"/>
      <path class="cls-6" d="M298.97,143.25c0,1.63-.14,3.23-.42,4.79h0c-.16,1.06-.4,2.08-.7,3.08h0c-.09.34-.19.67-.31.99-.73,2.25-1.75,4.37-3.01,6.32-3.14,4.93-7.79,8.82-13.29,11-1.51.62-3.08,1.09-4.71,1.43-.01.01-.02,0-.02,0-13.3-.37-23.95-11.27-23.95-24.66,0-3.94.92-7.66,2.56-10.96h.01c4.03-8.13,12.41-13.72,22.1-13.72.43,0,.86,0,1.28.03.01-1.8.18-3.56.48-5.28,2.54.77,4.93,1.89,7.11,3.31,3.84,2.49,7.04,5.89,9.27,9.89.01,0,0,.01,0,.01.3.53.58,1.06.85,1.61,1.76,3.68,2.75,7.81,2.75,12.16Z"/>
      <path class="cls-6" d="M340.94,170.88c0,10.93-7.11,20.2-16.95,23.44-2.43.81-5.03,1.24-7.73,1.24-6.61,0-12.62-2.6-17.05-6.85-.6-2.95-.71-5.9-.38-8.77h0c.39-3.46,1.43-6.79,3.01-9.82h.01c.99-1.93,2.21-3.73,3.63-5.37.44-.52.9-1.02,1.4-1.51,3.22-3.25,7.29-5.76,12-7.15,5.97-1.76,12.07-1.45,17.51.51.85.3,1.68.65,2.49,1.03-.38.36-.77.7-1.17,1.04,1,1.75,1.79,3.64,2.33,5.63.31,1.06.53,2.15.67,3.26.15,1.09.23,2.19.23,3.32Z"/>
      <path class="cls-6" d="M109.89,189.08c0,1.52-.13,3-.39,4.46h0c-.37,2.09-.99,4.1-1.85,6-.28-.73-.55-1.47-.79-2.22-3.46,4.04-8.31,6.86-13.81,7.73-1.19.2-2.41.3-3.66.3-12.72,0-23.04-10.31-23.04-23.03,0-3.73.89-7.26,2.47-10.38.84-1.68,1.89-3.23,3.12-4.64h0c-.85-1.27-1.61-2.59-2.27-3.97,1.4-.49,2.86-.88,4.35-1.17,1.72-.33,3.49-.53,5.3-.56.26-.02.53-.02.8-.02,6.48,0,12.48,1.92,17.37,5.17,3.33,2.21,6.15,5.04,8.25,8.32,1.15,1.78,2.08,3.7,2.77,5.72.9,2.62,1.38,5.4,1.38,8.29Z"/>
      <path class="cls-6" d="M100.99,162.43c-1.02,1.56-2.19,3.01-3.5,4.32-3.73,3.77-8.56,6.39-14.01,7.26-.57.09-1.15.17-1.74.22-1.18.11-2.36.13-3.51.07h-.01c-3.31-.17-6.48-.99-9.4-2.36.84-1.68,1.89-3.23,3.12-4.64h0c-.85-1.27-1.61-2.59-2.27-3.97-2.13-4.37-3.32-9.27-3.32-14.46,0-3.51.55-6.9,1.56-10.07,2.67-8.4,8.6-15.35,16.3-19.35,11.19,2.36,20.09,12.25,21.22,24.81.6,6.7-1.11,13.05-4.44,18.17Z"/>
      <g>
        <g>
          <path class="cls-5" d="M193.43,60.92v68c0,.67-.54,1.22-1.22,1.22h-1.88c-.55,0-1.01-.36-1.16-.86-.04-.11-.06-.23-.06-.36V60.92c0-.17.04-.34.11-.48.16-.39.51-.67.95-.73.05-.01.11-.01.16-.01h1.88c.68,0,1.22.55,1.22,1.22Z"/>
          <g>
            <path class="cls-5" d="M225.83,286.33l-1.07-16.23-7.37-111.42c0-2.15.19-3.97.41-5.51h.01c.34-2.35.77-4.05.77-5.26,0-2.2-1.41-2.82-7.3-2.82-8,0-8.73,3.01-8.47,8.77.1,2.38.37,5.23.37,8.53l-6.52,112.55-.85,14.66-4.99,86.16c0,5.65,2.29,10.77,5.99,14.47s8.82,5.99,14.47,5.99c11.3,0,20.46-9.16,20.46-20.46l-5.91-89.43ZM210.91,251.86c6.39,0,11.58,5.18,11.58,11.58s-5.19,11.58-11.58,11.58-11.58-5.19-11.58-11.58,5.18-11.58,11.58-11.58Z"/>
            <path class="cls-5" d="M202.56,60.39v67.99c0,.68-.55,1.22-1.22,1.22h-1.89c-.67,0-1.22-.54-1.22-1.22V60.39c0-.68.55-1.22,1.22-1.22h1.89c.67,0,1.22.54,1.22,1.22Z"/>
            <path class="cls-5" d="M211.84,60.39v67.99c0,.68-.55,1.22-1.22,1.22h-1.89c-.67,0-1.22-.54-1.22-1.22V60.39c0-.68.55-1.22,1.22-1.22h1.89c.25,0,.48.07.67.21.33.21.55.58.55,1.01Z"/>
            <rect class="cls-5" x="217.44" y="59.7" width="4.33" height="70.44" rx="1.22" ry="1.22"/>
            <path class="cls-5" d="M230.24,60.39v67.99c0,.09-.01.18-.03.27,0,0,0,.02-.01.03-.13.53-.6.92-1.18.92h-1.88c-.68,0-1.22-.54-1.22-1.22V60.39c0-.68.54-1.22,1.22-1.22h1.88c.68,0,1.22.54,1.22,1.22Z"/>
            <path class="cls-5" d="M230.24,126.58v.54c0,.51-.01,1.02-.03,1.53,0,0,0,.02-.01.03-.43,10.93-5.44,20.3-12.39,24.49h-.01c-2.5,1.51-5.25,2.34-8.13,2.34-2.4,0-4.71-.58-6.86-1.65-7.47-3.69-13.01-13.24-13.64-24.58-.03-.59-.05-1.18-.06-1.78l4.32-.08,4.8-.09,4.33-.08,4.95-.09,2.16-.04,2.17-.06,5.6-.14,4.33-.12,4.15-.11,4.32-.11Z"/>
          </g>
        </g>
        <path class="cls-5" d="M204.36,316.24c-5.84-3.07,41.3-82.81,55.1-108.32,21.29-39.33,39.51-71.22,44.92-57,3.13,8.24-12.15,55.15-31.25,81.84-4.22,5.9-7.92-8.07-15.25,2.49-21.97,31.67-49.14,83.29-53.52,80.99Z"/>
        <path class="cls-3" d="M148.69,213.41c-1.62,3.06-4.01,5.57-7,7.33-.14.1-.28.18-.43.26-8.06,4.5-22.77-1.03-30.02-13.76-1.36-2.4-2.58-5-3.59-7.7-.28-.73-.55-1.47-.79-2.22-1.75-5.3-2.7-10.81-2.43-15.65.12-2.4.54-4.64,1.31-6.6.73-1.92,1.8-3.58,3.23-4.87.57-.54,1.21-1.01,1.9-1.41.06-.03.12-.07.18-.1,4.17-2.34,9.49-1.97,14.87.23,5.92,2.41,11.91,7.04,16.49,12.7,1.43,1.76,2.73,3.62,3.84,5.54,5.85,10.12,6.01,19.52,2.44,26.25Z"/>
        <ellipse class="cls-7" cx="170.03" cy="249.15" rx="6.46" ry="64.33" transform="translate(-116.83 155.9) rotate(-37.68)"/>
        <path class="cls-8" d="M205.07,51.77c0,3.9-.9,7.58-2.51,10.85-.4.83-.85,1.63-1.35,2.4-.39.62-.82,1.23-1.28,1.81-.32.43-.66.84-1.02,1.24-.21.25-.44.5-.68.74-1.42,1.5-3.03,2.82-4.8,3.92-1.36.84-2.8,1.56-4.32,2.13-2.71,1.03-5.65,1.59-8.72,1.59-10.02,0-18.64-5.97-22.5-14.54-1.4-3.09-2.18-6.52-2.18-10.14,0-5.65,1.89-10.84,5.09-15,3.32-4.34,8.05-7.54,13.51-8.92,1.94-.5,3.98-.76,6.08-.76,13.63,0,24.68,11.05,24.68,24.68Z"/>
        <path class="cls-8" d="M262.43,65.43c0,13.63-11.04,24.68-24.67,24.68-2.54,0-5-.38-7.31-1.1-.07-.02-.14-.04-.21-.07-1.51-.48-2.96-1.1-4.32-1.86-1.49-.8-2.88-1.77-4.15-2.86-1.64-1.39-3.1-3-4.33-4.78-2.75-3.98-4.36-8.8-4.36-14.01,0-.19,0-.39.01-.58.31-13.36,11.23-24.1,24.67-24.1.22,0,.45,0,.67.02,9.46.24,17.59,5.82,21.51,13.84,1.59,3.27,2.49,6.94,2.49,10.82Z"/>
        <path class="cls-8" d="M301.91,146.2c0,.51-.02,1.01-.05,1.51-.06,1.07-.19,2.13-.4,3.16-.01.1-.03.2-.05.29h0c-.08.4-.17.78-.27,1.16-.27,1.08-.62,2.14-1.04,3.16-.73,1.82-1.68,3.53-2.81,5.1-1.46,2.03-3.21,3.83-5.21,5.33-3.31,2.5-7.28,4.19-11.6,4.75-1.06.15-2.15.22-3.25.22-.23,0-.47,0-.7-.02-.01.01-.02,0-.02,0-13.3-.37-23.95-11.27-23.95-24.66,0-3.94.92-7.66,2.56-10.96h.01c4.03-8.13,12.41-13.72,22.1-13.72.43,0,.86,0,1.28.03,2.2.12,4.33.52,6.34,1.17,4.08,1.32,7.69,3.67,10.52,6.75.01,0,0,.01,0,.01.34.36.67.73.97,1.11,3.49,4.25,5.57,9.69,5.57,15.61Z"/>
        <path class="cls-8" d="M349.42,133.38c0,3.05-.41,6-1.18,8.8-.41,1.49-.92,2.95-1.53,4.35h0c-1.83,4.24-4.51,8-7.83,11.1-.38.36-.77.7-1.17,1.04-5.78,4.91-13.28,7.87-21.45,7.87-1.8,0-3.57-.14-5.29-.42-1.89-.3-3.72-.76-5.49-1.37-.71-.25-1.4-.51-2.09-.8-2.16-.91-4.2-2.04-6.1-3.37-.86-.59-1.69-1.23-2.48-1.91-.1-.08-.19-.16-.28-.24-1.21-1.06-2.35-2.2-3.41-3.42-.61-.71-1.2-1.45-1.74-2.22h-.01c-2.89-4-4.91-8.66-5.78-13.72-.32-1.85-.49-3.75-.49-5.69,0-3.73.61-7.31,1.75-10.66.36-1.07.78-2.12,1.25-3.14,5.23-11.43,16.77-19.36,30.16-19.36.92,0,1.84.04,2.74.12,7.51.61,14.32,3.72,19.58,8.51.57.52,1.12,1.06,1.66,1.62,5.69,5.95,9.18,14.02,9.18,22.91Z"/>
        <path class="cls-8" d="M132.67,148.87c0,7.54-2.51,14.48-6.75,20.05-2.53,3.34-5.68,6.18-9.28,8.35-1.4.85-2.87,1.6-4.4,2.23-1.21.5-2.45.94-3.73,1.29-1.33.38-2.69.67-4.08.88-1.6.24-3.25.36-4.92.36-5.61,0-10.9-1.39-15.53-3.86-2.06-1.08-3.98-2.39-5.75-3.87h-.01c-2.41-2.03-4.53-4.38-6.28-7h0c-.85-1.27-1.61-2.59-2.27-3.97-2.13-4.37-3.32-9.27-3.32-14.46,0-3.51.55-6.9,1.56-10.07,2.67-8.4,8.6-15.35,16.3-19.35,4.58-2.39,9.78-3.74,15.3-3.74,14.44,0,26.71,9.22,31.27,22.09,1.22,3.46,1.89,7.19,1.89,11.07Z"/>
        <circle class="cls-8" cx="132.67" cy="160.75" r="23.03"/>
        <path class="cls-8" d="M112.42,182.32c0,4.07-1.06,7.9-2.92,11.22h0c-.75,1.36-1.64,2.62-2.64,3.78-3.46,4.04-8.31,6.86-13.81,7.73-1.19.2-2.41.3-3.66.3-12.72,0-23.04-10.31-23.04-23.03,0-3.73.89-7.26,2.47-10.38.84-1.68,1.89-3.23,3.12-4.64h0c.95-1.12,2.01-2.13,3.16-3.04,1.3-1.04,2.72-1.93,4.22-2.66,3.04-1.48,6.46-2.31,10.07-2.31,4.23,0,8.2,1.14,11.6,3.14,3.26,1.89,6.01,4.57,7.98,7.77,1.72,2.77,2.87,5.92,3.27,9.3.12.92.18,1.86.18,2.82Z"/>
        <path class="cls-8" d="M340.94,170.88c0,10.93-7.11,20.2-16.95,23.44-2.43.81-5.03,1.24-7.73,1.24-6.61,0-12.62-2.6-17.05-6.85-.9-.85-1.73-1.77-2.49-2.76-3.23-4.17-5.14-9.4-5.14-15.07,0-1.7.17-3.37.5-4.97.53-2.58,1.46-5.02,2.73-7.24,1.11-1.96,2.49-3.74,4.08-5.32.45-.45.93-.88,1.42-1.3h.01c.35-.31.72-.6,1.09-.88h0c.29-.22.58-.43.88-.64.48-.33.97-.64,1.47-.93.87-.52,1.78-.98,2.72-1.38h.01c3-1.3,6.3-2.02,9.77-2.02,3.98,0,7.75.94,11.08,2.63,3.62,1.81,6.72,4.49,9.05,7.77.47.66.92,1.36,1.32,2.07,1,1.75,1.79,3.64,2.33,5.63.31,1.06.53,2.15.67,3.26.15,1.09.23,2.19.23,3.32Z"/>
        <path class="cls-8" d="M239.42,32.74c0,.86-.03,1.71-.1,2.56-.14,1.87-.45,3.7-.89,5.47-2.31,9.15-8.47,16.77-16.66,21.03-1.39.72-2.83,1.35-4.33,1.87-1.41.49-2.86.89-4.35,1.18-.42.08-.83.16-1.25.22-.46.08-.93.14-1.39.19-.97.12-1.95.18-2.94.21-.27.01-.55.01-.83.01-1.4,0-2.77-.09-4.12-.25-.45-.06-.9-.13-1.35-.21-.27-.04-.54-.09-.81-.15-.73-.13-1.46-.3-2.17-.49-1.1-.29-2.17-.64-3.22-1.04h-.01c-.53-.21-1.05-.43-1.57-.65-1.46-.65-2.87-1.4-4.21-2.25-1.35-.85-2.64-1.81-3.85-2.85-6.91-5.92-11.32-14.69-11.43-24.49v-.36c0-1.66.12-3.29.37-4.89,2.35-15.76,15.95-27.85,32.37-27.85,18.08,0,32.74,14.66,32.74,32.74Z"/>
      </g>
    </g>
  </g>
</svg>