<?xml version="1.0" encoding="UTF-8"?>
<svg id="Layer_2" data-name="Layer 2" xmlns="http://www.w3.org/2000/svg" viewBox="0 0 338.04 65.44">
  <defs>
    <style>
      .cls-1 {
        fill: #c2c4ac;
      }
    </style>
  </defs>
  <g id="Layer_1-2" data-name="Layer 1">
    <g>
      <polygon class="cls-1" points="306.8 6.84 338.04 6.84 337.12 10.12 306.8 10.12 306.8 6.84"/>
      <polygon class="cls-1" points="0 8.69 30.36 8.69 30.36 12.1 1.11 12.1 0 8.69"/>
      <polygon class="cls-1" points="325.12 52.76 239.76 52.76 239.76 48.99 326.18 48.99 325.12 52.76"/>
      <polygon class="cls-1" points="15.2 55.74 96.63 55.74 96.63 51.96 13.98 51.96 15.2 55.74"/>
      <g>
        <path class="cls-1" d="M53.82,20.56c0,1.45.35,2.18,1.05,2.18.04,0,.13,0,.27-.02.14-.01.27-.03.4-.06.15,0,.33-.01.54-.04.21-.02.29-.04.25-.04.4,0,.75.17,1.05.51s.44.72.44,1.14c0,1.18-.62,1.76-1.87,1.76h-.25c-.06-.03-.14-.04-.22-.04l-1.52-.26c-.3-.05-.59-.09-.89-.11-.3-.02-.6-.04-.92-.04-.36,0-.71.01-1.05.04-.34.03-.65.06-.95.11l-1.52.26c-.08,0-.15.01-.19.04h-.29c-1.25,0-1.87-.59-1.87-1.76,0-1.1.5-1.65,1.49-1.65-.04,0,.05.01.27.04.22.03.4.04.52.04.15.03.29.04.41.06.13.01.21.02.25.02.68,0,1.01-.72,1.01-2.18v-2.51l.03-3.19v-3.04l-.03-5.89c0-1.38-.57-2.06-1.71-2.06h-.92c-1.12,0-1.68.68-1.68,2.03v.73c0,.19.01.34.03.47l.13,1.28c.02.13.03.28.03.45v.53c0,1.85-.57,2.78-1.71,2.78s-1.65-.71-1.65-2.14v-.45c0-.2,0-.39.03-.56,0-.08,0-.17.02-.28.01-.11.02-.23.02-.36.06-1.13.09-1.85.09-2.18,0-.27,0-.56-.02-.86-.01-.3-.03-.62-.05-.98l-.09-1.09c-.02-.15-.02-.22,0-.22s0-.11-.03-.34c0-1.35.56-2.03,1.68-2.03.13,0,.36,0,.71.02s.78.04,1.28.09h.25c.19,0,.47,0,.84.02.37.01.83.03,1.38.06.57,0,1.15.01,1.73.04.58.03,1.16.04,1.73.04.1,0,.26,0,.47-.02s.46-.02.76-.02c.25,0,.55,0,.89-.02.34-.01.72-.02,1.14-.02.36,0,1.01-.04,1.96-.11.36-.05.72-.08,1.08-.09.36-.01.65-.02.89-.02,1.35,0,2.03.69,2.03,2.06,0,.25-.03.71-.08,1.37-.05.66-.1,1.36-.14,2.08v1.03c0,.29.02.62.06,1,.04.5.07.91.09,1.24.02.33.03.55.03.67,0,1.3-.57,1.95-1.71,1.95s-1.65-.76-1.65-2.29c0-.42.03-1.08.09-1.95.02-.42.04-.8.05-1.12s.02-.59.02-.79c0-1.33-.62-1.99-1.87-1.99h-.86c-.55,0-.95.16-1.2.49-.25.33-.4.81-.44,1.46l-.09,2.51-.03,12.23Z"/>
        <path class="cls-1" d="M86.74,12.53c-.15.1-.29.18-.43.23-.14.05-.29.11-.46.19.27.17.52.36.75.56s.41.44.55.71c.25.45.45,1.02.59,1.71.14.69.21,1.52.21,2.5v1.69c-.02.07-.03.21-.03.41,0,1.4.3,2.1.89,2.1s.92-.88.92-2.63v-1.05l-.03-.9v-.53c0-.38.01-.7.03-.98.02-.27.06-.5.13-.67.21-.6.69-.9,1.43-.9,1.08,0,1.62.67,1.62,2.03v.28c0,.16-.01.34-.03.54,0,.12,0,.26-.02.39-.01.14-.02.26-.02.36-.02.25-.03.45-.03.6v1.24c.02.1.03.21.03.32v.32c0,1.58-.38,2.8-1.12,3.66-.75.86-1.8,1.29-3.15,1.29-2.72,0-4.09-1.6-4.09-4.8v-1.09l.03-1.2v-.79c0-1.48-.21-2.4-.63-2.78-.42-.47-1.37-.71-2.85-.71h-2.82c-.3,0-.44.3-.44.9v2.78c0,.88,0,1.56.02,2.04.01.49.02.79.02.92v-.04c.17.95.51,1.43,1.01,1.43.19,0,.37-.02.54-.07.34-.08.63-.11.89-.11.99,0,1.49.58,1.49,1.73s-.63,1.8-1.9,1.8c-.04-.03-.08-.04-.13-.04-.13,0-.23-.01-.32-.04l-1.62-.26c-.34-.05-.63-.09-.89-.11-.25-.02-.5-.04-.73-.04-.13,0-.31.02-.55.07-.24.05-.5.1-.76.15-.26.05-.53.11-.79.17-.26.06-.49.11-.68.13-.23,0-.42.01-.55.04-.14.02-.38,0-.71-.08-1.23,0-1.84-.6-1.84-1.8,0-1.1.49-1.65,1.46-1.65.02,0,.05,0,.09.02.04.01.11.02.19.02.06,0,.15,0,.25.02s.21.02.32.02c.11.03.21.04.32.06.11.01.21.02.32.02.68,0,1.01-.73,1.01-2.18V6.08c0-1.4-.33-2.14-.98-2.21,0,.03-.09.04-.29.06s-.34.03-.44.06c-.13.02-.26.04-.41.06-.15.01-.27.02-.38.02-.38,0-.72-.17-1.01-.51s-.44-.72-.44-1.14c0-1.18.62-1.76,1.87-1.76h.21c.1,0,.18.01.27.04.25.03.51.06.78.09.26.04.51.07.74.09.21.03.44.04.68.06.24.01.51.02.81.02s.6,0,.9-.02c.31-.01.64-.03,1-.06h.19l2.31-.15c.38-.02.75-.04,1.12-.06s.71-.02,1.03-.02c4.79,0,7.19,2.19,7.19,6.57,0,2.58-.87,4.35-2.6,5.33ZM80.94,11.22c.8,0,1.5-.06,2.11-.19.6-.12,1.1-.32,1.5-.6.84-.55,1.27-1.56,1.27-3.04,0-2.4-1.42-3.6-4.25-3.6-1.61,0-2.67.14-3.2.41-.4.2-.6.65-.6,1.35,0,.18,0,.36-.02.56s-.02.38-.02.53v4.17c0,.2.02.32.05.36.03.04.13.06.3.06h2.85Z"/>
        <path class="cls-1" d="M104.92,6.08c0-1.45-.35-2.18-1.04-2.18-.15,0-.33.03-.54.08-.32.07-.62.11-.92.11-.4,0-.74-.16-1.03-.47s-.43-.72-.43-1.22c0-1.18.6-1.76,1.81-1.76h.19c.11,0,.21.01.32.04l2.44.23c.55.05.96.09,1.22.13.26.04.54.04.84.02l7.35-.26c.11,0,.62-.04,1.55-.11h-.03c.17-.02.33-.04.48-.04h.44c1.41,0,2.12.73,2.12,2.18,0,.08-.01.28-.03.62-.02.34-.05.76-.09,1.26-.04.35-.07.71-.08,1.09s-.02.7-.02.98c0,.4,0,.74.02,1.03.01.29.03.51.05.66.04.35.07.66.09.94.02.28.03.51.03.71,0,1.23-.54,1.84-1.62,1.84s-1.62-.8-1.62-2.4v-1.88c0-1.8-.25-2.83-.76-3.08h.03c-.53-.25-1.83-.38-3.9-.38-1.31,0-2.12.04-2.44.11-.61.25-.92.8-.92,1.65v2.48c-.02.17-.03.32-.03.43v.69c0,.67.04,1.06.13,1.16.21.05.42.08.63.08h1.27c.91,0,1.37-.33,1.39-.98-.02-.05-.04-.2-.05-.45s-.03-.46-.05-.64v.04c-.06-.45-.09-.91-.09-1.39,0-1.28.54-1.91,1.62-1.91s1.62.67,1.62,2.03c0,.13-.02.39-.05.79-.03.4-.09.91-.17,1.54-.13,1.1-.19,2.05-.19,2.85,0,.22.01.56.03.99.02.44.05.94.09,1.52l.16,1.2c.06.53.1.98.1,1.35,0,1.2-.54,1.8-1.62,1.8s-1.58-.67-1.58-2.03c0-.12,0-.3.02-.53.01-.22.03-.44.05-.64,0-.1,0-.24.02-.41s.02-.33.03-.47c.01-.14.02-.24.03-.3s.02-.04.02.06c0-.7-.4-1.05-1.2-1.05h-1.39c-.36,0-.58.09-.65.26-.07.17-.11.55-.11,1.12v2.91c0,.24.01.52.03.84.02.4.03.73.03.99v.58c.02.88.12,1.36.29,1.46.11.1.53.15,1.27.15h4.15c.99,0,1.67-.18,2.04-.54.37-.36.55-1.02.55-1.97v-.45c0-.17-.01-.38-.03-.6,0-.08,0-.16-.02-.24s-.02-.17-.02-.24c-.02-.3-.03-.61-.03-.92v-.73c0-1.43.54-2.14,1.62-2.14s1.68.73,1.68,2.18v.56c0,.23-.01.48-.03.75,0,.07,0,.18-.02.32-.01.14-.02.26-.02.36,0,.13,0,.25-.02.38-.01.13-.02.25-.02.38-.02.28-.03.51-.03.71v1.12c0,.25.01.55.03.9,0,.1,0,.18.02.24,0,.06.02.12.02.17.02.2.03.39.03.58v.47c0,1.48-.63,2.21-1.9,2.21h-.35c-.15,0-.27-.01-.38-.04-.06,0-.13,0-.21-.02-.07-.01-.14-.02-.21-.02-.38-.08-.73-.12-1.05-.13-.32-.01-.64-.02-.97-.02s-.68,0-1.06.02-.81.02-1.3.02c-.72-.02-1.39-.04-2.01-.06-.62-.01-1.2-.02-1.73-.02-1.9,0-3.77.08-5.61.23-.08,0-.15.01-.19.04h-.25c-1.2,0-1.81-.6-1.81-1.8,0-1.1.49-1.65,1.46-1.65.02,0,.05,0,.09.02.04.01.11.02.19.02.06,0,.15,0,.25.02.11.01.21.02.32.02.11.03.21.04.32.06.11.01.2.02.29.02.7,0,1.04-.73,1.04-2.18V6.08Z"/>
        <path class="cls-1" d="M133.88,6.08c0-1.45-.35-2.18-1.04-2.18-.15,0-.33.03-.54.08-.32.07-.62.11-.92.11-.4,0-.74-.16-1.03-.47s-.43-.72-.43-1.22c0-1.18.6-1.76,1.81-1.76h.19c.11,0,.21.01.32.04l2.44.23c.55.05.96.09,1.22.13.26.04.54.04.84.02l7.35-.26c.11,0,.62-.04,1.55-.11h-.03c.17-.02.33-.04.48-.04h.44c1.41,0,2.12.73,2.12,2.18,0,.08-.01.28-.03.62-.02.34-.05.76-.09,1.26-.04.35-.07.71-.08,1.09s-.02.7-.02.98c0,.4,0,.74.02,1.03.01.29.03.51.05.66.04.35.07.66.09.94.02.28.03.51.03.71,0,1.23-.54,1.84-1.62,1.84s-1.62-.8-1.62-2.4v-1.88c0-1.8-.25-2.83-.76-3.08h.03c-.53-.25-1.83-.38-3.9-.38-1.31,0-2.12.04-2.44.11-.61.25-.92.8-.92,1.65v2.48c-.02.17-.03.32-.03.43v.69c0,.67.04,1.06.13,1.16.21.05.42.08.63.08h1.27c.91,0,1.37-.33,1.39-.98-.02-.05-.04-.2-.05-.45s-.03-.46-.05-.64v.04c-.06-.45-.09-.91-.09-1.39,0-1.28.54-1.91,1.62-1.91s1.62.67,1.62,2.03c0,.13-.02.39-.05.79-.03.4-.09.91-.17,1.54-.13,1.1-.19,2.05-.19,2.85,0,.22.01.56.03.99.02.44.05.94.09,1.52l.16,1.2c.06.53.1.98.1,1.35,0,1.2-.54,1.8-1.62,1.8s-1.58-.67-1.58-2.03c0-.12,0-.3.02-.53.01-.22.03-.44.05-.64,0-.1,0-.24.02-.41s.02-.33.03-.47c.01-.14.02-.24.03-.3s.02-.04.02.06c0-.7-.4-1.05-1.2-1.05h-1.39c-.36,0-.58.09-.65.26-.07.17-.11.55-.11,1.12v2.91c0,.24.01.52.03.84.02.4.03.73.03.99v.58c.02.88.12,1.36.29,1.46.11.1.53.15,1.27.15h4.15c.99,0,1.67-.18,2.04-.54.37-.36.55-1.02.55-1.97v-.45c0-.17-.01-.38-.03-.6,0-.08,0-.16-.02-.24s-.02-.17-.02-.24c-.02-.3-.03-.61-.03-.92v-.73c0-1.43.54-2.14,1.62-2.14s1.68.73,1.68,2.18v.56c0,.23-.01.48-.03.75,0,.07,0,.18-.02.32-.01.14-.02.26-.02.36,0,.13,0,.25-.02.38-.01.13-.02.25-.02.38-.02.28-.03.51-.03.71v1.12c0,.25.01.55.03.9,0,.1,0,.18.02.24,0,.06.02.12.02.17.02.2.03.39.03.58v.47c0,1.48-.63,2.21-1.9,2.21h-.35c-.15,0-.27-.01-.38-.04-.06,0-.13,0-.21-.02-.07-.01-.14-.02-.21-.02-.38-.08-.73-.12-1.05-.13-.32-.01-.64-.02-.97-.02s-.68,0-1.06.02-.81.02-1.3.02c-.72-.02-1.39-.04-2.01-.06-.62-.01-1.2-.02-1.73-.02-1.9,0-3.77.08-5.61.23-.08,0-.15.01-.19.04h-.25c-1.2,0-1.81-.6-1.81-1.8,0-1.1.49-1.65,1.46-1.65.02,0,.05,0,.09.02.04.01.11.02.19.02.06,0,.15,0,.25.02.11.01.21.02.32.02.11.03.21.04.32.06.11.01.2.02.29.02.7,0,1.04-.73,1.04-2.18V6.08Z"/>
        <path class="cls-1" d="M166.29,10.96h8.68v-4.8c0-1.48-.34-2.21-1.01-2.21-.02,0-.08,0-.17.02-.09.01-.2.03-.3.06h.03c-.15.05-.31.09-.49.11-.18.03-.35.04-.52.04-.99,0-1.49-.56-1.49-1.69,0-1.2.6-1.8,1.81-1.8.34,0,.89.08,1.65.23.38.08.73.12,1.06.15.33.02.64.04.93.04.44,0,.92-.01,1.44-.04.52-.03,1.02-.09,1.5-.19.27-.05.52-.09.74-.11.22-.02.39-.04.49-.04,1.25,0,1.87.59,1.87,1.76,0,1.1-.5,1.65-1.49,1.65-.11,0-.23,0-.36-.02s-.27-.03-.4-.06c-.13-.02-.29-.04-.48-.06-.19-.01-.29-.03-.29-.06-.63.03-.95.76-.95,2.21v14.37c0,1.45.33,2.18.98,2.18.04,0,.13,0,.27-.02s.28-.02.43-.02l.79-.11c.99,0,1.49.55,1.49,1.65,0,1.2-.62,1.8-1.87,1.8-.27,0-.71-.08-1.3-.22-.66-.17-1.38-.26-2.19-.26-1.12,0-2.04.07-2.76.22-.42.1-.77.17-1.05.21-.27.04-.44.06-.51.06-1.22,0-1.84-.6-1.84-1.8,0-1.13.5-1.69,1.49-1.69-.04,0,.04.01.25.04.21.03.39.05.54.08.13.03.25.04.38.04h.29c.57,0,.9-.51.98-1.54.02-.12.03-1.18.03-3.15v-3.57h-8.68v3.6c0,1.98,0,3.03.03,3.15.13,1.03.46,1.54,1.01,1.54.02,0,.1,0,.24-.02.14-.01.28-.02.43-.02l.82-.11c.97,0,1.46.55,1.46,1.65,0,1.2-.62,1.8-1.87,1.8-.23,0-.7-.08-1.39-.22-.49-.1-.94-.17-1.36-.23-.42-.05-.79-.08-1.11-.08-.42,0-.85.03-1.28.08-.43.05-.89.13-1.38.23l-.73.15c-.08.02-.15.04-.19.06s-.14.02-.29.02c-1.27,0-1.9-.6-1.9-1.8,0-.42.15-.81.44-1.16s.64-.53,1.05-.53c.13,0,.26,0,.4.02.14.01.27.03.4.06.27.07.5.11.67.11.7,0,1.05-.73,1.05-2.18V6.08c0-1.48-.35-2.21-1.05-2.21-.06,0-.13,0-.19.02s-.15.03-.25.06c-.17.05-.35.09-.54.11-.19.03-.35.04-.47.04-.4,0-.75-.17-1.05-.53s-.44-.74-.44-1.16c0-1.18.63-1.76,1.9-1.76.11,0,.25.01.44.04.19.03.4.06.63.11.04,0,.07,0,.08.02s.04.02.08.02c.72.18,1.63.26,2.72.26.4,0,1.01-.08,1.84-.23.84-.15,1.49-.22,1.93-.22,1.25,0,1.87.6,1.87,1.8,0,.5-.14.91-.43,1.22-.29.31-.63.47-1.03.47-.17,0-.34-.01-.52-.04-.18-.02-.35-.06-.52-.11-.06,0-.12,0-.17-.02-.05-.01-.1-.02-.14-.02-.06,0-.11-.01-.13-.04-.36,0-.61.19-.76.56-.15.38-.23.93-.25,1.65l-.03,4.84Z"/>
        <path class="cls-1" d="M200.7,26.6c-2.85,0-5.12-1.21-6.81-3.64-1.63-2.43-2.44-5.65-2.44-9.68s.82-7.28,2.47-9.68c1.67-2.4,3.98-3.6,6.94-3.6s5.09,1.16,6.72,3.49c1.67,2.33,2.5,5.43,2.5,9.31,0,4.2-.84,7.54-2.53,10.02-1.61,2.53-3.89,3.79-6.84,3.79ZM200.76,3.6c-1.8,0-3.18.84-4.15,2.51-.97,1.68-1.46,4.05-1.46,7.13s.49,5.54,1.46,7.22c.97,1.69,2.34,2.53,4.12,2.53s3.04-.85,4.06-2.55c1.06-1.73,1.58-4.17,1.58-7.32s-.48-5.43-1.44-7.07c-.96-1.64-2.35-2.46-4.17-2.46Z"/>
        <path class="cls-1" d="M225.6,9.19l-.13,2.89v5.52c0,1.68.14,2.83.41,3.45.29.68.8,1.2,1.52,1.58.36.15.74.28,1.14.39.4.11.79.17,1.17.17,1.01,0,1.86-.22,2.55-.66.69-.44,1.13-1.02,1.35-1.75.11-.42.18-.89.24-1.41.05-.51.09-1.09.11-1.74,0-1.55.01-3.1.03-4.63.02-1.54.03-3.08.03-4.63,0-.9,0-1.59-.02-2.08-.01-.49-.03-.79-.05-.92-.17-.95-.51-1.43-1.01-1.43-.11,0-.21.01-.32.04-.04,0-.08,0-.11.02-.03.01-.07.02-.11.02-.17.05-.34.08-.51.09-.17.01-.31.02-.41.02-.38,0-.72-.17-1.03-.53-.31-.35-.46-.74-.46-1.16,0-1.2.62-1.8,1.87-1.8h.29c.08,0,.16.01.22.04l1.77.3c.44.08.93.11,1.46.11.49,0,.91-.04,1.27-.11l1.33-.26c.32-.08.59-.11.82-.11,1.18,0,1.77.58,1.77,1.73s-.58,1.73-1.74,1.73h-.54s-.08-.04-.13-.04c-.34,0-.55.23-.63.68-.13.65-.19,2.46-.19,5.44v6.3c0,.78,0,1.46-.02,2.06-.01.6-.04,1.08-.08,1.43-.19,1.2-.57,2.31-1.14,3.34-1.31,2.23-3.51,3.34-6.59,3.34-3.84,0-6.3-1.48-7.38-4.43h.03c-.21-.47-.36-1.06-.44-1.75-.08-.69-.13-1.48-.13-2.38s.03-2.16.09-3.86c.06-1.68.1-2.95.1-3.83v-1.91c0-1.78-.01-2.73-.03-2.85-.13-1.05-.35-1.58-.67-1.58h-.22c-.11.05-.22.08-.33.08h-.33c-1.2,0-1.81-.58-1.81-1.73s.56-1.73,1.68-1.73c.38,0,.76.04,1.14.11.49.1.95.18,1.39.23s.87.08,1.27.08c.87,0,1.84-.11,2.92-.34.13-.02.26-.04.41-.06s.31-.02.48-.02c1.18,0,1.77.58,1.77,1.73s-.53,1.73-1.58,1.73c-.13,0-.25,0-.38-.02-.13-.01-.26-.03-.41-.06-.13-.02-.29-.04-.48-.06-.19-.01-.27-.03-.25-.06-.36.03-.61.31-.76.86-.04.15-.07.4-.1.75-.02.35-.04.79-.06,1.31l-.06,2.36Z"/>
        <path class="cls-1" d="M257.95,0c1.75,0,3.22.53,4.4,1.58.17-.83.63-1.24,1.39-1.24,1.04,0,1.55.69,1.55,2.06v.22s0,.06-.02.11-.02.1-.02.15c-.04.28-.08.7-.11,1.28-.03.58-.05,1.23-.05,1.95,0,.03,0,.07.02.13,0,.06.02.14.02.24v.3c0,.13.01.28.03.45l.1,1.39c.04.13.06.22.05.28-.01.06-.02.16-.02.28,0,1.5-.55,2.25-1.65,2.25s-1.68-.65-1.68-1.95v-.19l.06-1.01c.02-.17.03-.32.03-.45v-.3c0-1.28-.36-2.28-1.09-3s-1.74-1.09-3.03-1.09c-1.18,0-2.11.34-2.79,1.01-.68.68-1.01,1.59-1.01,2.74,0,1.33.49,2.29,1.46,2.89.29.2.72.38,1.28.53.56.15,1.22.3,1.98.45,1.14.25,2.18.54,3.11.86.93.33,1.62.7,2.06,1.13.72.68,1.27,1.46,1.65,2.36.38.9.57,1.91.57,3.04,0,2.4-.75,4.38-2.25,5.93-1.48,1.48-3.36,2.21-5.64,2.21-1.99,0-3.7-.59-5.13-1.76,0,1.2-.53,1.8-1.58,1.8-1.12,0-1.68-.67-1.68-2.03,0-.1.01-.2.03-.3l.13-1.88c.06-.92.09-1.51.09-1.76,0-.2-.02-.47-.05-.83-.03-.35-.07-.78-.11-1.28-.04-.5-.07-.92-.09-1.28-.02-.35-.03-.66-.03-.94,0-1.43.55-2.14,1.65-2.14s1.71.71,1.71,2.14v.75c-.02.08-.03.17-.03.3v.41c0,1.65.44,2.96,1.31,3.92.88.96,2.08,1.44,3.6,1.44,1.39,0,2.5-.38,3.31-1.14.81-.76,1.22-1.82,1.22-3.17,0-.95-.29-1.74-.86-2.36-.57-.62-1.36-1.06-2.38-1.31l-1.74-.38c-.89-.17-1.67-.38-2.36-.6-.69-.22-1.27-.45-1.76-.67-.97-.5-1.74-1.28-2.31-2.35-.57-1.06-.86-2.26-.86-3.58,0-2.25.71-4.1,2.12-5.55,1.35-1.38,3.15-2.06,5.39-2.06Z"/>
        <path class="cls-1" d="M279.52,6.08c0-1.45-.35-2.18-1.04-2.18-.15,0-.33.03-.54.08-.32.07-.62.11-.92.11-.4,0-.74-.16-1.03-.47s-.43-.72-.43-1.22c0-1.18.6-1.76,1.81-1.76h.19c.11,0,.21.01.32.04l2.44.23c.55.05.96.09,1.22.13.26.04.54.04.84.02l7.35-.26c.11,0,.62-.04,1.55-.11h-.03c.17-.02.33-.04.48-.04h.44c1.41,0,2.12.73,2.12,2.18,0,.08-.01.28-.03.62-.02.34-.05.76-.09,1.26-.04.35-.07.71-.08,1.09s-.02.7-.02.98c0,.4,0,.74.02,1.03.01.29.03.51.05.66.04.35.07.66.09.94.02.28.03.51.03.71,0,1.23-.54,1.84-1.62,1.84s-1.62-.8-1.62-2.4v-1.88c0-1.8-.25-2.83-.76-3.08h.03c-.53-.25-1.83-.38-3.9-.38-1.31,0-2.12.04-2.44.11-.61.25-.92.8-.92,1.65v2.48c-.02.17-.03.32-.03.43v.69c0,.67.04,1.06.13,1.16.21.05.42.08.63.08h1.27c.91,0,1.37-.33,1.39-.98-.02-.05-.04-.2-.05-.45s-.03-.46-.05-.64v.04c-.06-.45-.09-.91-.09-1.39,0-1.28.54-1.91,1.62-1.91s1.62.67,1.62,2.03c0,.13-.02.39-.05.79-.03.4-.09.91-.17,1.54-.13,1.1-.19,2.05-.19,2.85,0,.22.01.56.03.99.02.44.05.94.09,1.52l.16,1.2c.06.53.1.98.1,1.35,0,1.2-.54,1.8-1.62,1.8s-1.58-.67-1.58-2.03c0-.12,0-.3.02-.53.01-.22.03-.44.05-.64,0-.1,0-.24.02-.41s.02-.33.03-.47c.01-.14.02-.24.03-.3s.02-.04.02.06c0-.7-.4-1.05-1.2-1.05h-1.39c-.36,0-.58.09-.65.26-.07.17-.11.55-.11,1.12v2.91c0,.24.01.52.03.84.02.4.03.73.03.99v.58c.02.88.12,1.36.29,1.46.11.1.53.15,1.27.15h4.15c.99,0,1.67-.18,2.04-.54.37-.36.55-1.02.55-1.97v-.45c0-.17-.01-.38-.03-.6,0-.08,0-.16-.02-.24s-.02-.17-.02-.24c-.02-.3-.03-.61-.03-.92v-.73c0-1.43.54-2.14,1.62-2.14s1.68.73,1.68,2.18v.56c0,.23-.01.48-.03.75,0,.07,0,.18-.02.32-.01.14-.02.26-.02.36,0,.13,0,.25-.02.38-.01.13-.02.25-.02.38-.02.28-.03.51-.03.71v1.12c0,.25.01.55.03.9,0,.1,0,.18.02.24,0,.06.02.12.02.17.02.2.03.39.03.58v.47c0,1.48-.63,2.21-1.9,2.21h-.35c-.15,0-.27-.01-.38-.04-.06,0-.13,0-.21-.02-.07-.01-.14-.02-.21-.02-.38-.08-.73-.12-1.05-.13-.32-.01-.64-.02-.97-.02s-.68,0-1.06.02-.81.02-1.3.02c-.72-.02-1.39-.04-2.01-.06-.62-.01-1.2-.02-1.73-.02-1.9,0-3.77.08-5.61.23-.08,0-.15.01-.19.04h-.25c-1.2,0-1.81-.6-1.81-1.8,0-1.1.49-1.65,1.46-1.65.02,0,.05,0,.09.02.04.01.11.02.19.02.06,0,.15,0,.25.02.11.01.21.02.32.02.11.03.21.04.32.06.11.01.2.02.29.02.7,0,1.04-.73,1.04-2.18V6.08Z"/>
      </g>
      <g>
        <path class="cls-1" d="M122.14,60.75c0,1.66.47,2.49,1.39,2.49.14,0,.36-.03.65-.09.29-.06.5-.09.65-.09.23,0,.44.1.61.31.17.21.26.46.26.75,0,.78-.4,1.17-1.21,1.17-.04,0-.09,0-.16,0-.09-.02-.15-.03-.19-.03l-1.33-.23c-.51-.09-1.07-.13-1.71-.13-.69,0-1.29.05-1.81.14l-1.35.24c-.05,0-.12.01-.19.03-.09,0-.15,0-.19,0-.79,0-1.19-.38-1.2-1.16,0-.71.28-1.07.86-1.07.14,0,.36.03.65.08.29.05.51.08.65.08.9,0,1.35-.84,1.34-2.5v-2.33s-.02-2.93-.02-2.93v-2.83s-.04-5.42-.04-5.42c0-1.58-.67-2.36-1.99-2.35h-.84c-1.3.01-1.94.79-1.94,2.34,0,.56.01.93.03,1.13l.11,1.23c.02.2.03.48.03.83,0,1.4-.34,2.1-1.04,2.1-.67,0-1-.51-1.01-1.53,0-.29.01-.79.05-1.5.05-1.07.07-1.74.07-2.03,0-.55-.02-1.13-.05-1.73-.07-1.18-.1-1.67-.1-1.5,0-.93.33-1.4,1.02-1.4.25,0,.84.03,1.76.09.09,0,.83.04,2.21.12h3.08c.36-.02,1.32-.04,2.89-.09.34,0,.93-.03,1.75-.1.74-.06,1.31-.09,1.73-.1.9,0,1.35.45,1.36,1.36v.07c0,.22-.02.63-.06,1.23-.04.6-.09,1.24-.14,1.93v.37c0,.33.03.85.09,1.56.08.93.12,1.51.12,1.73,0,.91-.34,1.37-1.05,1.37-.69,0-1.03-.55-1.04-1.67,0-.4.02-1,.07-1.79.05-.79.08-1.39.07-1.79,0-1.54-.72-2.3-2.15-2.3h-.76c-.67,0-1.14.18-1.43.53s-.45.92-.48,1.72l-.1,2.33.05,11.31Z"/>
        <path class="cls-1" d="M150.31,61.24l-.99-3.26c-.11-.35-.22-.58-.34-.66-.12-.09-.36-.13-.72-.13l-4.82.02c-.36,0-.61.08-.74.24-.13.16-.31.58-.52,1.27l-.77,2.57c-.07.25-.11.48-.11.7,0,.71.36,1.06,1.06,1.06.18,0,.44-.02.77-.07.33-.05.58-.07.74-.07.74,0,1.11.38,1.12,1.16,0,.73-.4,1.1-1.21,1.1-.14,0-.34-.02-.59-.06l-1.35-.2c-.25-.04-.67-.06-1.25-.05-.63,0-1.07.02-1.33.06l-1.14.17c-.5.08-.87.11-1.11.12-.7,0-1.06-.36-1.06-1.09,0-.78.34-1.17,1.02-1.17.14,0,.25.04.33.13h.35c.49,0,.85-.24,1.11-.71.11-.18.29-.7.53-1.57l4.95-16.82c.28-.94.85-1.41,1.7-1.41.83,0,1.38.46,1.66,1.39l4.92,16.48c.31,1.04.59,1.73.85,2.06s.62.5,1.08.49c.14,0,.25-.02.32-.05l.76-.09c.69,0,1.03.36,1.03,1.09,0,.78-.34,1.17-1.02,1.17-.2,0-.46-.02-.78-.07-1.14-.17-1.99-.25-2.54-.25-.67,0-1.75.1-3.24.28-.38.05-.67.07-.87.07-.72,0-1.08-.37-1.09-1.13s.39-1.13,1.18-1.14c.16,0,.4.02.72.06.32.04.55.06.72.06.6,0,.89-.3.89-.9,0-.09-.07-.38-.22-.86ZM148.33,54.46l-2.48-9.17-2.45,9.2c-.04.13-.05.21-.05.23,0,.2.14.3.41.3l4.3-.02c.22,0,.32-.09.32-.27,0-.04-.02-.13-.05-.27Z"/>
        <path class="cls-1" d="M169.07,60.04c0,1.3.12,2.07.33,2.32.16.2.38.32.64.36.26.04.85.06,1.77.06h2.38c1.24-.02,2.07-.22,2.49-.63.41-.41.62-1.22.61-2.45,0-.33-.01-.71-.03-1.15-.04-.85-.06-1.37-.06-1.54,0-.96.31-1.45.94-1.45.76,0,1.14.44,1.14,1.33,0,.27,0,.48-.02.63l-.18,1.7c-.05.49-.08,1-.07,1.53,0,.31.03.77.07,1.38s.07,1.07.07,1.38c0,1-.45,1.5-1.37,1.5-.18,0-.6-.04-1.25-.11-.43-.04-1.1-.07-2-.11h-2.03s-4.33.03-4.33.03c-.43,0-1.15.05-2.16.14-.14,0-.39.02-.74.05s-.63.05-.83.05c-.76,0-1.14-.39-1.14-1.19,0-.71.27-1.07.83-1.07.14,0,.36.03.65.1.29.07.5.1.65.1.92,0,1.38-.84,1.37-2.5l-.06-13.34c0-1.64-.47-2.46-1.39-2.46-.25,0-.44.02-.57.07-.29.07-.53.1-.73.1-.23,0-.43-.1-.6-.31-.16-.21-.25-.47-.25-.78,0-.78.38-1.17,1.16-1.17.11,0,.24.01.41.03l1.44.19c.79.11,1.38.16,1.76.16.47,0,1.04-.06,1.73-.17l1.24-.21c.14-.02.26-.03.35-.04.81,0,1.22.38,1.22,1.16,0,.31-.08.57-.24.78-.16.21-.36.32-.59.32-.18,0-.42-.03-.73-.1-.13-.04-.32-.06-.57-.06-.92,0-1.38.82-1.37,2.46l.06,12.91Z"/>
        <path class="cls-1" d="M190.38,47.04c0-1.64-.47-2.46-1.39-2.46-.25,0-.44.02-.57.07-.29.07-.53.1-.73.1-.23,0-.43-.1-.6-.31-.16-.21-.25-.47-.25-.78,0-.78.37-1.17,1.13-1.17.02,0,.15.01.4.03,2.7.21,3.96.31,3.78.32h.27s6.5-.26,6.5-.26c.13,0,.59-.04,1.4-.11.29-.02.55-.04.78-.04.93,0,1.4.5,1.41,1.52,0,.18-.02.74-.07,1.7-.04.71-.05,1.36-.05,1.96,0,.78.02,1.32.05,1.63.06.64.1,1.12.1,1.43,0,.84-.31,1.27-.95,1.27-.64,0-.96-.58-.97-1.76v-1.73c-.02-1.86-.34-2.96-.97-3.29-.47-.24-1.68-.36-3.63-.35-1.28,0-2.04.04-2.27.11-.77.25-1.16.92-1.15,2v1.5c0,.18,0,.42.01.73,0,.31,0,.53,0,.67v.43c0,.89.17,1.4.49,1.53.12.04.34.07.64.06h1.09c1.12,0,1.68-.49,1.67-1.44,0-.27-.03-.61-.07-1.03-.05-.42-.07-.8-.07-1.13,0-.89.31-1.33.95-1.33.64,0,.96.47.97,1.43,0,.18-.05.87-.17,2.06-.09,1.02-.14,1.92-.14,2.7,0,.44.04,1.23.12,2.36.02.18.07.57.14,1.16.06.49.09.88.09,1.17,0,.8-.32,1.2-.97,1.2-.63,0-.95-.46-.95-1.39,0-.24.02-.6.06-1.06.04-.47.06-.82.06-1.07,0-.95-.52-1.43-1.55-1.42h-1.22c-.52,0-.84.12-.96.34-.12.22-.17.7-.17,1.43v2.06c.01.36.02.83.04,1.43.02.73.03,1.22.03,1.46.02.89.17,1.44.44,1.66.2.15.67.23,1.41.23l3.68-.02c1.06,0,1.79-.2,2.19-.59s.59-1.12.58-2.18c0-.33-.02-.83-.05-1.48-.03-.65-.05-1.15-.05-1.48,0-1,.31-1.5.95-1.5.68,0,1.02.51,1.02,1.53,0,.4,0,1.01-.03,1.83-.02.82-.03,1.43-.03,1.83,0,.31.02.77.05,1.38.03.61.05,1.07.05,1.38,0,1.04-.41,1.57-1.24,1.57-.2,0-.51-.02-.95-.06-.22-.02-.61-.03-1.19-.03.13,0-.58-.02-2.11-.06-1.53-.04-2.86-.05-3.98-.05-1.7,0-3.35.08-4.98.22-.07,0-.15.01-.24.03-.09,0-.14,0-.16,0-.76,0-1.14-.39-1.14-1.19,0-.71.27-1.07.83-1.07.09,0,.33.02.73.06.2.07.39.1.57.1.92,0,1.38-.84,1.37-2.5l-.06-13.34Z"/>
        <path class="cls-1" d="M219.03,41.75c1.77,0,3.21.68,4.34,2.08v-.47c0-.87.27-1.3.83-1.3.61,0,.92.47.93,1.43v.2s-.02.38-.08,1c-.05.62-.08,1.36-.07,2.23,0,.11.02.47.06,1.06l.09,1.33c.02.11.03.27.03.47,0,1.06-.33,1.6-.99,1.6-.7,0-1.06-.44-1.06-1.33v-.17s.05-.9.05-.9c.02-.31.02-.55.02-.73,0-1.33-.38-2.37-1.11-3.12-.73-.75-1.74-1.12-3.02-1.12-1.17,0-2.1.37-2.79,1.08-.69.71-1.03,1.67-1.03,2.87,0,1.4.53,2.43,1.56,3.09.58.35,1.59.67,3.03.95,2.15.41,3.62.98,4.42,1.71,1.2,1.08,1.8,2.62,1.81,4.62,0,2.09-.59,3.79-1.8,5.1-1.21,1.31-2.78,1.98-4.7,1.99-2.05,0-3.75-.78-5.11-2.37,0,.09,0,.19,0,.3,0,.11,0,.17,0,.2.07.35.11.58.11.69,0,.81-.33,1.22-.99,1.22-.72,0-1.09-.46-1.09-1.39,0-.11.03-.2.08-.27l.12-1.73c.06-.87.09-1.42.08-1.67,0-.44-.06-1.11-.16-2-.1-.89-.16-1.55-.16-2,0-1,.34-1.5,1.02-1.5.7,0,1.06.5,1.06,1.5v.6c0,.18,0,.43,0,.77,0,1.67.45,2.99,1.31,3.97.87.98,2.04,1.46,3.51,1.45,1.37,0,2.45-.41,3.26-1.21.81-.8,1.21-1.89,1.2-3.27,0-2.11-1.1-3.39-3.26-3.84l-1.54-.33c-1.54-.33-2.73-.71-3.58-1.15-.78-.42-1.4-1.08-1.86-1.97-.46-.9-.7-1.91-.71-3.04,0-1.95.56-3.54,1.71-4.77s2.64-1.84,4.48-1.85Z"/>
      </g>
    </g>
  </g>
</svg>