<?xml version="1.0" encoding="UTF-8"?>
<svg id="Layer_2" data-name="Layer 2" xmlns="http://www.w3.org/2000/svg" viewBox="0 0 159.8 147.39">
  <defs>
    <style>
      .cls-1 {
        fill: #88d357;
      }
    </style>
  </defs>
  <g id="Layer_1-2" data-name="Layer 1">
    <g>
      <path class="cls-1" d="M143.42,49.76c.22-.35.54,1.47.5,2.3.35-2.25.51.27.31-4.03.18-2.13.7.77.45,2.54l.74-2.69-.58-.63c-.07-3.58.93,1.02.85-3.16l-.96.41-.02-1.19c-.15,1.29-.61.78-.79.29-.01-.59-.09-1.55.08-1.66-1.2-.2.07,6.27-.84,7.52.06-.09.13-.05.26.3Z"/>
      <path class="cls-1" d="M140.95,53.16c.49-.92.62-.19.78-2.93.52.28.93,1.03,1.24,2.23.12-.52,0-2.57.17-2.99-.04.05-.07.11-.12.14l-.34-5.02c-.09,1.07-.27.58-.44.7l.44-5.92c-.56-4.69-1.19-1.87-1.63-3.81.67,4.21-.18,2.12.81,5.53l-.13,4.5-.77-1.11c.09,1.55-.33,2.83.1,4.17.05-.24.15-.71.27-.58.14,3.35-.81,1.72-.38,5.1Z"/>
      <path class="cls-1" d="M47.9,85.07c.16-.49.11-.97,0-1.45-.02.38-.03.81,0,1.45Z"/>
      <path class="cls-1" d="M71.96,80.17l-.05.64c.08-.06.08-.32.05-.64Z"/>
      <path class="cls-1" d="M136.31,42.1c.05.13.1.26.15.4-.04-.23-.1-.33-.15-.4Z"/>
      <path class="cls-1" d="M133.53,41.96v-.04c-.03.08-.03.2-.05.27l.05-.23Z"/>
      <path class="cls-1" d="M115.86,36.99c.09.42.18.79.29,1.08-.05-.49-.16-.84-.29-1.08Z"/>
      <path class="cls-1" d="M98.69,43.16c-.04.13-.07.29-.09.51l.09-.51Z"/>
      <path class="cls-1" d="M97.51,40c0,.24.02.47.03.68.03-.16.01-.46-.03-.68Z"/>
      <path class="cls-1" d="M139.3,56.84s-.01.02-.02.02l.03.58v-.6Z"/>
      <path class="cls-1" d="M139.56,49.52c.08-.16.16-.29.24-.43-.1-.02-.19.14-.24.43Z"/>
      <path class="cls-1" d="M121.11,44.61c.14.71.41,1.56.39,2.39.07-1.05-.16-3.58-.39-2.39Z"/>
      <path class="cls-1" d="M139.97,88.18c0-.68.02-1.2.05-1.71-.06.74-.11,1.34-.05,1.71Z"/>
      <path class="cls-1" d="M140.1,85.34c-.03.32-.06.71-.08,1.14.03-.38.06-.77.08-1.14Z"/>
      <path class="cls-1" d="M122.69,86.14c-.05-.34-.11-.62-.15-.7.07.68.12.82.15.7Z"/>
      <path class="cls-1" d="M140.08,49.88c-.03-1.19.98-3.85-.05-4.4-.21-3.7.53-1.75.73-2.69-.25-.86-.06-2.38-.2-3.71-.1.46-.19,1.53-.43,1.28-.21-1.69.05-2.86.35-2.24-.45-1.94.22-2.96-.34-4.43-.89,1.37-1.49,2.76-1.81,8.21.49-.93,1.04-2.07,1.59-.61l.02,3.22c-.7-2.79-.87-.67-1.39-.93l1.24,1.63c.7,2.63.39,3.27.02,3.88.1.03.21.22.27.79Z"/>
      <path class="cls-1" d="M141.21,78.03l.02.09c0-.11.02-.19.02-.33l-.05.24Z"/>
      <path class="cls-1" d="M139.51,62.56h0s0,.04,0,0Z"/>
      <path class="cls-1" d="M109.16,84.61c0,.3.07.64.2,1.07,0,0-.09-.55-.2-1.07Z"/>
      <path class="cls-1" d="M119.31,30.25c-.12-.04-.2.05-.26.19.09.07.18.06.26-.19Z"/>
      <path class="cls-1" d="M112.54,72.51c-.04.21-.07.47-.08.82.09-.06.09-.4.08-.82Z"/>
      <path class="cls-1" d="M117.13,77.5c.04-.12.08-.27.13-.54-.02.13-.08.29-.13.54Z"/>
      <path class="cls-1" d="M127,61.9c-.07-.07-.14-.09-.2-.05,0,.13,0,.27,0,.39.07.37.16-.11.21-.35Z"/>
      <path class="cls-1" d="M127.53,67.88c.14.71.35,1.8.45,2.76.17,0,.18-1.32.32-1.81-.17.38-.41.15-.77-.95Z"/>
      <path class="cls-1" d="M128.3,68.78s0,.03-.01.05c0,0,0-.03.01-.05Z"/>
      <path class="cls-1" d="M107.36,87.87s-.02.07-.04.11c.02-.01.03-.05.04-.11Z"/>
      <path class="cls-1" d="M136.83,44.24l.02-.17s-.02.1-.02.17Z"/>
      <path class="cls-1" d="M103.46,77c-.01-.17-.03-.35-.05-.55,0,.17.02.36.05.55Z"/>
      <path class="cls-1" d="M123.8,73.89l-.06-.15c.02.06.04.11.06.15Z"/>
      <path class="cls-1" d="M139.65,57.23c.08-1.07.48-.92.25-3.2.18,2.51-.66.43-.25,3.2Z"/>
      <path class="cls-1" d="M140.29,58.08l.05-.08s-.04.04-.05.08Z"/>
      <path class="cls-1" d="M139.91,58.66l.36.99c-.01-.52-.08-1.31.02-1.58l-.38.59Z"/>
      <path class="cls-1" d="M143.3,76.05c-.45-2.54-1.7-3.93-1.41.72.12-1.89.2-2.95.59-2.81.54,6.11-.51,1.75-.3,7.47.72.53.59-4.83,1.12-5.38Z"/>
      <polygon class="cls-1" points="142.1 84.52 142.39 83.12 142.33 82.76 142.04 84.17 142.1 84.52"/>
      <path class="cls-1" d="M129.81,31.98c-.18-1.91-.29,0-.39.46.12.12.31.61.39-.46Z"/>
      <path class="cls-1" d="M50.52,39.38l-2.75,2.33c.8-.63,1.57-1,2.75-2.33Z"/>
      <path class="cls-1" d="M120.68,45.29c.66-1.87.74-5.2,1.5-6.11-1.43-3.76-.93,6.13-2.19,2.27l.69,3.84Z"/>
      <path class="cls-1" d="M119.73,36.92c.48-.92-.04-3.45.49-3.18l-.57-3.71c.45,3.59-.27,4.27.08,6.9Z"/>
      <polygon class="cls-1" points="128.24 91.09 128.37 90.39 128.32 89.2 128.24 91.09"/>
      <polygon class="cls-1" points="116.18 32.73 115.66 31.63 116.16 33.56 116.18 32.73"/>
      <polygon class="cls-1" points="129.07 97.68 129.1 96.02 128.66 96.94 129.07 97.68"/>
      <path class="cls-1" d="M124.15,76.72c-.04.23-.61-1.22-.22,1.18l.22-1.18Z"/>
      <polygon class="cls-1" points="113.29 34.03 113.57 32.62 113.49 32.26 113.22 33.68 113.29 34.03"/>
      <path class="cls-1" d="M122.42,88.68c-.02-.18-.05-.39-.09-.64.03.21.06.43.09.64Z"/>
      <path class="cls-1" d="M122.44,91.24c.3-.39.14-1.45-.02-2.56.19,1.77-.59.39.02,2.56Z"/>
      <path class="cls-1" d="M115.84,70.14c.05-.12.09-.27.12-.42-.05,0-.1.11-.12.42Z"/>
      <path class="cls-1" d="M102.39,75.3c-.03.22-.04.48-.05.88.03-.28.04-.57.05-.88Z"/>
      <path class="cls-1" d="M103.36,74.19c.24.25.4.12.51-.58-.16-.71-.76-1.33-.51.58Z"/>
      <path class="cls-1" d="M51.21,42.29c0,.21.03.36.05.39l-.05-.39Z"/>
      <path class="cls-1" d="M51.6,41.12l.18,2.01-.04-4.26-.93.49.4,2.93c-.03-.76.07-2.29.39-1.17Z"/>
      <path class="cls-1" d="M52.3,42.54c.41,2.48.75.93.81.46l-1.03-6.76c-.31,1.32.27,4.76.8,6.28-.21,1.67-.84-3.66-.58.02Z"/>
      <polygon class="cls-1" points="56.13 37.45 56.21 38.9 56.62 39.22 56.13 37.45"/>
      <path class="cls-1" d="M54.13,37.26l.6.46c-.19-.24-.38-.4-.6-.46Z"/>
      <path class="cls-1" d="M55.26,38.54l-.08-.45-.46-.37c.19.25.36.52.54.81Z"/>
      <path class="cls-1" d="M54.5,34.4l.68,3.69.62.48c-.43-2.4-.9-4.92-1.3-4.17Z"/>
      <polygon class="cls-1" points="79.5 99.66 79.41 99.3 79.23 100.72 79.32 101.09 79.5 99.66"/>
      <path class="cls-1" d="M53.05,36.57c-.23-1.53-.36-.58-.42-.1.13.11.36.59.42.1Z"/>
      <path class="cls-1" d="M43.57,43.04c.21.71.31,1.06.44,1.17l-.44-1.17Z"/>
      <path class="cls-1" d="M47.72,87.16c-.01-.19-.04-.45-.09-.78.05.3.07.55.09.78Z"/>
      <path class="cls-1" d="M1.2,78.23c1.05-.81,1.28.03,1.17.58-.38.45-.94,1.23-1.22,1.15,1.36,1.35,4.14-4.72,6.09-4.77-.13.01-.2-.1-.12-.48-.5.04.33-1.62.93-2.2-1.93,1.34-.44-.7-3.09,2.69-1.66,1.4-.32-1.26,1.17-2.32l-2.71,1.26.27,1.05c-2.34,2.72-.44-1.67-3.18,1.49l1.45.66-.78.9Z"/>
      <path class="cls-1" d="M.57,87.67c1.96-3.81,1.64-1.41,2.67-4.95l3.17-3.25.22,1.58c.91-1.25,2.29-1.81,2.64-3.23-.22.14-.66.39-.72.18,2.05-2.65,2.14-.52,3.85-3.47-1.2.23-.88-.44-2.89,1.46-.45-.71-.46-1.66-.03-2.87-.48.27-1.72,1.91-2.2,2.07.08,0,.16,0,.24.02l-2.95,4.08c.83-.71.72-.16,1.01-.08l-4.52,3.98c-2.45,4.05.24,2.59-.48,4.48Z"/>
      <path class="cls-1" d="M154.96,101.12c.18-.35.36-.75.56-1.36-.43.4-.54.87-.56,1.36Z"/>
      <path class="cls-1" d="M88.18,124.95c-.04.16-.08.3-.12.52l.64-1.48s0,0,0,0c-.18.32-.35.64-.52.96Z"/>
      <path class="cls-1" d="M75.44,140.06c.73-.83,1.46-1.67,2.17-2.52-.55,1.32.24,1.08-.48,2.61.16-.19.81-.61.85-1.35h-.31c1.78-3.79,1.74-5.44,3.72-8.18-.13-2.56-1.01-.47-1.88,1.25-.21.24-.35.34-.5.46l-2.63,5.27-.95,2.45Z"/>
      <path class="cls-1" d="M134.66,120.79c-.17.64-.52,1.23-.25,1.3l.25-1.3Z"/>
      <path class="cls-1" d="M113.09,73.54c.07-.05.15-.12.22-.18-.06-.03-.12-.08-.15-.12-.03.11-.04.19-.07.31Z"/>
      <path class="cls-1" d="M119.09,95.26l.32-.58c-.13.03-.23.27-.32.58Z"/>
      <path class="cls-1" d="M10.99,87.35c.02-.15.03-.3.06-.45-.1.22-.09.34-.06.45Z"/>
      <path class="cls-1" d="M61.98,114.83l-.3-.28c.08.21.19.27.3.28Z"/>
      <path class="cls-1" d="M48.1,127.37l-.97.88c.25.01.58-.35.97-.88Z"/>
      <path class="cls-1" d="M14.52,90.1v.04c.07-.05.15-.14.21-.18l-.21.14Z"/>
      <path class="cls-1" d="M36.16,109.53c.1-.42.18-.8.19-1.13-.2.45-.24.82-.19,1.13Z"/>
      <path class="cls-1" d="M48.28,127.2s0-.07,0-.1c-.06.08-.12.18-.18.26l.18-.16Z"/>
      <path class="cls-1" d="M61.33,129.5c-.14.05-.27.21-.39.39.13-.13.24-.21.39-.39Z"/>
      <path class="cls-1" d="M65.23,115.85l-.38.4c.12-.09.25-.21.38-.4Z"/>
      <path class="cls-1" d="M74.54,129.35l.69-.55c-.26.01-.48.24-.69.55Z"/>
      <path class="cls-1" d="M65.11,119.79c.1-.21.2-.41.28-.62-.11.13-.24.4-.28.62Z"/>
      <path class="cls-1" d="M16.84,73.29s.03,0,.03,0l.34-.47-.37.47Z"/>
      <path class="cls-1" d="M11.72,78.61c-.2.05-.39.07-.59.09.11.12.33.08.59-.09Z"/>
      <path class="cls-1" d="M33,98.98c.22-.7.34-1.62.85-2.28-.71.81-1.87,3.05-.85,2.28Z"/>
      <path class="cls-1" d="M36.3,48.67c-.43.52-.79.91-1.14,1.28.54-.52.98-.94,1.14-1.28Z"/>
      <path class="cls-1" d="M35.16,49.95c-.27.26-.54.52-.82.81.25-.22.52-.49.82-.81Z"/>
      <path class="cls-1" d="M11.31,77.85c-.74.93-3.78,1.97-2.84,3.38-2.19,2.99-1.83.81-2.71,1.31-.25.89-1.51,1.85-2.21,2.98.44-.24,1.26-.96,1.4-.54-.85,1.48-1.96,2.1-1.93,1.34-.71,1.9-2.25,2-2.52,3.66,2.06-.14,3.77-.59,7.76-4.42-1.23.23-2.69.56-2.43-1.08l2.1-2.45c-.96,2.78.67,1.35,1.15,2.05l-.49-2.43c.86-2.66,1.67-2.84,2.54-2.95-.11-.13-.12-.37.18-.85Z"/>
      <path class="cls-1" d="M28.18,55.55l.21-.14.03-.09c-.08.08-.15.12-.24.23Z"/>
      <path class="cls-1" d="M20.31,68.74h0s.03-.02,0,0Z"/>
      <path class="cls-1" d="M68.45,131.77c-.03.14-.07.28-.1.42.13-.15.14-.3.1-.42Z"/>
      <path class="cls-1" d="M27.16,112.24c.16.13.33.13.5.07-.09-.14-.24-.2-.5-.07Z"/>
      <path class="cls-1" d="M60.4,85.12l-.23.46c.08-.1.15-.19.23-.29,0-.07,0-.1,0-.17Z"/>
      <path class="cls-1" d="M59.98,81.78c.16-.15.33-.36.53-.66-.15,0-.32.28-.53.66Z"/>
      <path class="cls-1" d="M35.37,80.08c.05.12.12.19.23.2.09-.11.17-.22.24-.31.13-.35-.27-.05-.47.11Z"/>
      <path class="cls-1" d="M55.76,89.13c.3-.29.52-.63.71-.99-.17.14-.39.41-.71.99Z"/>
      <path class="cls-1" d="M38.28,74.83c.25-.69.64-1.73,1.09-2.58-.21-.14-1.02.92-1.47,1.21.43-.18.6.21.38,1.38Z"/>
      <path class="cls-1" d="M37.86,73.48s.03-.02.04-.03c0,0-.03.02-.04.03Z"/>
      <path class="cls-1" d="M74.18,83.34c-.06.16-.12.33-.18.51.07-.15.13-.33.18-.51Z"/>
      <path class="cls-1" d="M107.17,93.99c.04-.12.08-.27.13-.48l-.13.48Z"/>
      <path class="cls-1" d="M155.57,114.85c.22-1.54.5-1.24.74-2.03.32-2.87-.88,1.88-1.22-.29l1.51-3.32-.22-2.73,3.4-7.3c-1.67-2.23-4.04,8.37-5.1,4.33.37-.86.23-1.66.27-2.37-.7,1.34-1.3,1.26-1.87,3.1l-.79-.18c.22-1.55,1.05-5.28,1.86-5.09-2.83-.65-6.1,6.79-8.6,3.61-.02-.74.51-.86.37-1.39-.45.75-1.09,1.54-1.33,2.35.13-.6.33-1.38.54-1.44-1.71,1.31-1.82-3.5-3.11-1.36.22-1.91.91-1.13.89-1.86-1.24-1.77-2.85,3.97-4.33,3.73.88-2.6.08-2.8-.09-4.43-1.56,2.2-4.22,2.38-6.34,3.95,1.35-5.86-1.26-1.76-1.36-4.68.03.18.07.37.11.59.1-2.72.52-5.67,1.32-3.36-.09,1.9.63-.44.61,3.25.09-1.89.83.65.74-1.73-.02.83-.29.81-.54-.04.18-.94.04-3.1.38-2.71.07.37.09.95.09.95.25-1.99-.45-7.64.25-7.71,1.73-1.79.35,8.11.74,9.68-.07-1.79.64-3.28,1.13-1.59l-.02.84c.14-.71.3-2.25.63-.44-.11-2.98-.1-5.83-.11-7.85l.8-.54-.05,1.66c.14-.7.3-.81.46-.92.24,2.27-.05,1.66-.24,2.59.28,2.04.44,1.94.48-.32l-.11-.13c.12-1.3.66-4.71-.02-5.47.31-2.24.78,2.32,1.02,1.15.17,1.91-.09,2.48.18,3.93.34.38.56.64.75-.3-.29-.62-.05-1.8-.52-2.89.08-1.07.44-1.51.36-2.46-.1.46-.13,1.29-.43.09.35-1.05.78-1.14,1.32.32.02.45,0,.89-.02,1.31.33-3.37,1.23-2.56,1.35-6.45l-.22-.76c-.06,1.08-.33,1.22-.51.23.36-1.05-.54-3.49-.2-5.13.51-1.75,1.33,2.36,1.39-1.91-.62-.4-1.57-2.62-1.68-.72l.39.15-.52,5.2c-.16-1.91-.68,1.26-.88-1.84.26-.57.54-.56.75-.9-.15-1.32-.85-.66-1.19-1.04l.47,1.1c-.53,2.58-1.49,1.81-2.04,3.79.36-2.48-.84-2.08-.59-4.67.06-1.66.52.86.39.15-.14-2.75-.46-.52-.75-2.55.06,1.79-.57,2.82-.01,4.87-.32-1.21-.61,1.63-1.06-.3.33,3.23-.42,2.11-.43,3.54-.15-.16-.31-.79-.46-1.53.21-1.05.46-2.44.71-3.95v.02c.18.48.46.51.33-.22l-.08-1.22c.51-3.02,1.02-6.15,1.31-7.5l-.06,1.66c.27-4.03,1.12.08,1.48-2.99.02.6-.03.83.08.95.74.53.64-5.07,1.38-2.52l.05,1.78c.03-.22.27-1.7.07-3.67-.43.68-.46,1.51-.93,1.01.06-1.63.35-3.01.63-3.04l-.18-3.12c.14-3.32.83,1.48.97-1.82l-.56-2.07c0-.14.03-.22.05-.32-.17.33-.31.75-.3,1.5-.52,1.74-1.15-2.7-1.37-4.37-.37-.99-.16-3.94-.33-5.86-.44.69-.17,4.15-.61,4.84-.16-.4-.16-1.04-.12-1.38l-.21,1.6c-.08-.96-.96-1.61-.63-3.85.08.08.21-.01.32.11-.83-2.2-2.18-4.59-2.4-8.09-.43-.75-.2.94-.87-.06-.09,2.5.39,5.02-.13,6.77l.6,1.2c.07-.48.11-1.1.2-1.5l-.51.33c.25-1.17.09-2.49.02-4.88.8-.3,1.33,4.01,1.82,5.12-.12,1.9-.59,1.39-.21,4.39-.6-2.65-.26,2.61-.91.17l.03-.82c-.21,2.36-.47-.51-.63,1.62-.02-.6-.09-.96-.16-1.32-.58,1.39.34,1.81-.13,4.76-.64-.41-.56-4.92-.84-6.36.72-4.12-.4-5.03.47-8.42-.3-4.06-.78-4.57-1.34-4.01.52,1.7.2,5.96.92,8.74-.74,2.1-.07,9.99-1.33,6.35l-.02-.6-.18,2.96-.68-1.59c.02-4.29.6-2.23.69-4.72-1.01-4.22-.59,4.26-1.4,3.97-1.03-4.81.58-2.83.27-6.89-.08,1.07-.67-.99-.71-2.18.86,1.48.25-2.59,1.25-.41-.3,1.41.16,1.32.22,3.12,0-1.43.73-2.11,1.33-1.48-.1-2.98-.66-2.42-1.1-3.75-.41,3.31-1.53-2.47-1.74,1.32-.67.44-.28-2.87-.35-3.22-.74-1.35-.08,2.49-.23,3.2-.78,2.33-1.34-3.41-2.04-3.57-.25,4.04-1.74,2.76-2.73,2.59,0-1.42-.22-2.5-.39-3.83-.11,5.6-.1,3.33-.52,6.88l.77,1.94c-.43.69-.49,4.62-1.2,1.6,1.02,5.05-.46,3.78-.67,5.55-.65-1.8-.82,1.98-1.36-1.13l.05-.23-.77-.51-.34-4.88c-.66-1.83-.95,1.85-.65,3.29-.63-1.21-.38-1.8-.66-4.07.16-1.54.42-5.8.95-1.86-.07-.36-.2-.48-.17.11,1.55,2.11-.08-5.96.49-7.26-.39-.32-.86-2.66-1.13-1.33-.17.12-.71,2.11-.92,3.89.3-2.25.75-.09,1.29,1.6-.37-.38-.17,2.38-.6.81l.02-.84-.2,1.78c-.31-2.87-1.09-1.11-.85-4.55-.43.69.07,2.62-.29,3.67l.97.99.26,3.1c-.13,2.14-.41-.14-.74.09l.34,3.46-.89-2.89c.28,2.27-.27,1.41-.37,1.89-.47-1.33-.74-6.69-1.04-3.61l.08.36c-.23,1.18-.36,1.89-.92,1.02-.03-.59.06-1.06.1-1.29-.84-1.71-1.42,3.62-2.2-1.41-.21-2.73.23-1.18-.06-4.28,1.1,3.06.65-1.62,1.06-2.87.08.32.16.7.22,1.15.04-.24.04-.83.05-1.43.1.02.22.13.37.37.7,6.93.66-4.13,1.53,2.69-.56-.86-.81,3.41-.66,4.13.4-.43,1.01-.64,1.38.05-.48-2.24-.74-6.07-.76-8.46-.16.59-.43.6-.75.31l.39-2.12-.35-.66c0-3.58.56,1.05.58-3.12l-.61.37v-1.19c-.11,1.28-.39.76-.5.26,0-.59-.04-1.55.07-1.66-.68-.22-.17,5-.46,6.95-.09-.13-.17-.27-.26-.41l-.13-3.96c-.07,1.07-.18.56-.28.68l.33-5.9c-.31-4.71-.75-1.92-1.02-3.87.4,4.23-.13,2.11.48,5.56l-.11,4.49-.48-1.14c.03.88-.04,1.66-.06,2.43-.07-.05-.13-.1-.19-.13l.4,3.24c-.08.54-.2.71-.23,1.36-.1-.74-.13-2.53-.29-3.62.11-1.01.15-1.99-.21-2.33-.12-3.71.34-1.73.47-2.65-.16-.87-.03-2.38-.11-3.71-.07.46-.13,1.52-.28,1.26-.13-1.69.04-2.85.23-2.22-.28-1.95.16-2.95-.19-4.44-.59,1.33-.99,2.69-1.18,8.13.31-.91.66-2.03,1.01-.55v3.21c-.43-2.81-.54-.7-.87-.98l.78,1.67c.14.88.22,1.54.25,2.04-.06-.2-.13-.32-.22-.34v2.13s-.02.02-.02.03c0,0,0,.01.01.02v.91s-.08-.36-.08-.36l-.03.69-.09-.52c0-.14.02-.21.03-.32-.1.32-.19.74-.18,1.48-.14.8-.31.26-.46-.71,0-.17-.01-.34-.03-.53l-.03.1c-.15-1.09-.27-2.49-.34-3.28-.23-1-.12-3.94-.23-5.87-.28.67-.09,4.14-.36,4.81-.1-.41-.1-1.04-.09-1.38l-.12,1.59c-.06-.96-.62-1.64-.42-3.87.05.09.13,0,.21.13-.54-2.23-1.43-4.67-1.61-8.17-.29-.77-.12.93-.57-.09-.03,2.49.31,5.03,0,6.75l.4,1.22c.04-.48.06-1.1.11-1.49l-.32.31c.14-1.16.03-2.49-.05-4.87.52-.27.91,4.05,1.23,5.18-.06,1.89-.36,1.36-.09,4.37-.28-1.82-.24.05-.32.64-.05-.03-.1-.04-.15-.05-.03-.11-.06-.25-.09-.46v-.82c-.09,2.28-.28-.36-.36,1.45,0,0,0,0-.01.01-.02-.51-.07-.86-.11-1.19-.14.54-.13.94-.08,1.41-.11.15-.22.33-.32.53-.08-1.36-.14-2.85-.24-3.57.4-4.09-.34-5.03.18-8.39-.25-4.06-.57-4.59-.94-4.05.36,1.71.22,5.96.73,8.76-.44,2.07.13,9.97-.73,6.29l-.03-.6-.05,2.95-.46-1.61c-.09-4.28.33-2.21.33-4.69-.73-4.24-.29,4.23-.8,3.92-.77-4.83.3-2.81.01-6.86-.03,1.07-.45-1.01-.51-2.2.59,1.5.11-2.58.81-.37-.17,1.4.13,1.32.21,3.12-.02-1.43.43-2.09.83-1.43-.11-2.98-.47-2.44-.78-3.78-.2,3.29-1.05-2.51-1.11,1.27-.43.42-.24-2.87-.3-3.23-.52-1.37,0,2.48-.08,3.18-.45,2.3-.96-3.44-1.43-3.62-.06,4.02-1.06,2.71-1.72,2.52-.05-1.41-.23-2.5-.39-3.83.12,5.58.05,3.32-.1,6.85l.57,1.95c-.26.68-.14,4.59-.71,1.57.55,3.25.33,3.88.1,4.38l-.18-.58c-.06.1-.13.18-.19.25-.08-.92-.21-1.67-.27-.92.05.31.12.65.18,1-.25.23-.49.3-.73.3,0-.03,0-.05-.01-.07l.02-.23-.51-.53-.45-4.87c-.52-1.84-.52,1.83-.26,3.27-.46-1.22-.33-1.8-.62-4.07.02-1.53,0-5.78.53-1.83-.07-.36-.15-.49-.11.11,1.11,2.14-.32-5.94,0-7.22-.27-.32-.69-2.66-.81-1.34-.11.11-.38,2.09-.43,3.86.09-2.23.49-.08.93,1.62-.26-.38,0,2.36-.36.79l-.03-.83-.05,1.77c-.34-2.86-.78-1.13-.79-4.55-.25.68.17,2.61,0,3.65l.69,1.01.33,3.09c.02,2.13-.27-.15-.48.08l.4,3.45-.72-2.89c.3,2.26-.1,1.4-.13,1.87-.37-1.34-.85-6.67-.88-3.61l.07.36c-.08,1.17-.13,1.88-.54,1-.05-.59-.02-1.06,0-1.29-.65-1.71-.7,3.58-1.52-1.44-.31-2.72.08-1.17-.3-4.26,1.18,3.98-.13-5.07.98-2.75.85,6.91.22-4.11,1.17,2.7-.42-.86-.35,3.38-.21,4.11.24-.42.63-.62.91.07-.43-2.24-.81-6.06-.95-8.45-.26,1.98-1.68-2.61-2.45-3.14l.59,4.16c-.22,3.06-.41-3.91-.9-4.07l.18,3.08-.07-.36.14,3.77c.21-.21-.27-3.2.2-1.51.4,1.33.37,3.09.61,5.47-.31-1.21-.75-.29-.77-3.12l-.07,4.23c-.2-1.54-.15-2.25-.2-3.07l-.34.79-.06-.59c-.11,1.88-.6,1.96-.46,4.92.98,2.89.2,3.53.56,5.8-.26-.37-1.33-7.61-1.27-10.56.45,2.38.34-.79.54-1.01-.5-1.45-.33.55-.53.78-.09-1.88-.64-2.39-.85-3.94-.13-1.19-.52-4.74,0-3.3.49.15.56,3.8.61,3.09.65,3.93.54-.78.97.3.08.36.05.83.03,1.06.21-.23.71-.31.4-3.04l-.34,2.1c-.24-.84-.14-2.49-.53-4.04-.05.7-.17,1.05-.43.46l-.12-1.19c-.66-2.16-1.13-1.25-1.4-.08.74,6.04,1.03,9.71,1.77,16.21-.57.21-1.21.03-2.02-1.05.2,1.28.38,2.54.52,3.66-.41-1.55-.55-.26-1.01-3.34.25,2.87.14,5.21.59,7.93l-.06.27c-.1-.44-.2-.87-.31-1.28l.11-.65-.17-.71-.11.67c-.54-2.04-1.08-3.52-1.6-3.95-.13-.04.19,2.01.69,4.91-.27-.86-.52-1.64-.66-1.75-.13-1.34-.35-3.11-.2-3.3l-1.12-.87-.16-1.41-.04,2.07c.08-.82.55-.03.97,3.02-.03,2.3-.8-.78-.51,2.99,0-.03-.02-.06-.03-.09-.92-5.32-1.19-6.18-1.6-9.33.03.05.06.15.09.28-.38-3.03-.64-6.34-.53-7.11-1.13-1.67-.59.22-1.54-.97-.63-3.19.08-3.54-.46-5.66l.96,1.43c-.08.25.03.97.06,1.5.09-2.4.75.5.5-3.25.47,1.45.05,2.51.39,3.01-.11.63.29,4.27.61,6.78.74,1.2-.38-4.12-.14-5.52l.8,2.74c.12-.59-.34-1.67-.51-2.6.13-.83.55,1.19.75,1.2-.17-.72-.44-1.55-.6-2.74.71,2.39.77.75,1.78,5.24-.51-2.14-.67-5.55-.64-6.26l-1.32-4.39c-.57,1.52-1.41-.51-1.9,1.82l-.25-1.77c-2.29-5.22.34,8.72-.73,9.04-.81-4.36-.4.7-1.13-3.54.39.23.03-1.41-.44-3.41.07,1.53.51,4.71-.16,3.18-.26-2.24-.94-4.02-.72-4.94-.7-.84-.92-.37-.47,3.5-.14,3.89-1.15-4.7-1.59-2.34l-.19-1.66-.41.71.59,2.12-.12,2.7c.1,2.47.69,2.71.99,4.47l-.49-3.18c.39.7.21-2.12.69.11-.31.56.27,3.02.35,4.31l.13-1.36.58,2.35c.39,0,.77.48.49-2.23-.38-1.17.18,2.36-.3.59-.57-4-.16-4.46.06-5.87.19.94.38,1.18.47,2,.06.36-.03.34-.1.19.36,1.76.32,2.94.94,3.93.36,2.83.91,7.53,1.1,8.48-.1.81-.37,1.15-.75.2l-.1-.58c-.28-.36-.17,2.59-.75-.24,0,.71-.17,1.64.49,3.17v.1c-.08.1-.15.26-.21.49-.03.18.03.05.14-.05l-.18,1.22c-.89-5.06-1.66-5.99-1.88-10.23,0,.11-.1.75-.27,1.74-.03-.16-.05-.33-.08-.5-.02-.23-.06-.51-.13-.89.1.12.1-.11.3.84-.5-3.64-.99-4.48-1.39-4.71l.49,2.86c-.61-1.55-1.3-4.05-1.43-2.74l1.32,10.79c-.04.23-.07.47-.11.71-.46-1.62-.57-.31-1.13-3.64-.32-1.3-.33-2-.03-1.41.1.35.11.58.21.93-.32-1.76-.74-3.87-1.35-5.73.3.34.4.69.28-.6l-.3-.35c.18-.7-.15-4.81-.67-7.27.62,3.52-.3.12-.61-.47,0-.7-.11-2.7-.42-3.05.21,1.42.02,3.53.74,4.81,0,.95.13,2.71-.28,1.77-.12-1.76-.53-2.92-.96-5.27.22,2.11.75,4.57.96,5.74-1.23-2.79-2.85-9-3.02-6.4,0,.47.19-1.18.63,1.16.37,4.12-1.6-4.07-1.68-2.29l.99,3.85c.01.7-.18,1.41-.26,1.77-.33-1.29-1.41-3.84-1.34-5.14-1.29-2.08,1.22,8.42.09,7.4.63.91.62.68.92.56.17,2.22.35,1.74.93,4.43-.77-2.45-.89-.1-1.2-3.38-.3-.11-.9-.31-.64,1.32l.54,1.28c-.39.01-.19,2.48.32,5.28.36-.47-.82-5.37-.12-5.05,1.27,2.54.5,2.8,1.81,6.51l-.21-2.93-.3-.34c-.82-3.85.78.22-.35-4.45,1.29,3.5.93,1.27,2.19,4.53-.24-1.63-.44-1.64-.64-1.87.29.11-.71-4.45.24-1.77.31.58-.67-3.28-.97-3.15.3.11.38-.71.79-.25l-.96-2.92.3-.12-.63-1.63c.49-.61,1.32-.15,2.47,3.7.15,3.18-.96,2.14-.15,7.18.42,1.4-.38-3.64.69.57l-.46-2.81c-.02-.94.15-2.13.79.68-.04,2.15.38,4.64.67,7.09.13.6.15.91.12,1.06,0,.03,0,.05,0,.07v-.07c-.09.3-.38.06-.35.77-.3-.58-.55-2.22-.66-2.8-1.36-3.39.3,5.74-.81,3.52-.57-2.45-1.16-2.91-1.31-4.2-.5-.57,0,2.47.19,4.22-.57-2.21-.68-.56-1.08-3.02l.56,3.75c-.53-1.28-.52.71-1.22-1.84-.05.82.87,3.84.24,2.69-.13-.58-.24-.92-.14-.81-.44-1.16-.82-1.16-.52.72.41.69.23.7.63,1.15.14.58.26,1.27.31,1.79l-.48.09c-.52-3.73-1.24-3.51-1.55-5.58-.59-.16-.21,2.81.17,5.85l-2.22.44c-.71-2.16-.17-2.69-1.07-4.97,1.67,6.95-.74,1.33-.13,5.17-.62-.67-.63-3.01-.94-3.35l.47,2.21c-.33-.58-.58-1.26-.99-2.77-.74-1.01-.92.3-.44,3.33.01-.79.2-.05.43.92l-.36.07c-.5-1.52-.37-.7-.29.06l-.19.04c-.2-1.27-.43-2.85-.54-3.14.94,4.75-2.11-2.42-1.31.92.35,1.79.58,3.39.82,4.99l-.06.04c.07.31.13.58.19.81.14.92.29,1.86.46,2.84-.28-.62-.48-.96-.64-1.13-.18-.87-.35-2-.91-3.34l-1,.55v-.65c-.09.06-.09.33-.07.69l-.61.34-.45-1.3c0,.82-.29,1.32-.66,1.36.06.18.11.34.16.47l-1.81,1c-.33,1.53.59,3.2.88,5.66-.18-.46-.38-1-.57-1.69l.07-.14c-.71-.5-.54,1.82-.13,4.37l-.73-1.72-.07-1.33-.41-.33c.05.31.11.61.16.9l-.24-.57c-1.14-.94,1.86,4.97,1.43,6.07-1.33-3.26-1.44-1.25-2.43-3.95-.03.35-.14.25.57,2.3.21.2.26-.51.94,1.88.09,1.05-.63-.63-.77-.38-.19-.57-.68-2.39-.6-1.93,0,1.53-.94,1.77.65,7.45-.03-.59-.75-2.62-.13-1.64.53,1.47.32,1.26.55,2.05,1.02,2.7-.45-1.95.5-.05l.81,3.42.38.83c-.26.24-.53.64-.91.3l-.53-2.61c-.25.84-.88,1.33-1.45,1.34.24,1.54.71,1.17.76,3.07.29,0,.47-.37.11-2.01.23,0,.53,1.58.86,2.82-.61.16-1.12,0-1.74.21.15-.72.18-1.67-.21-3.49-.31,1.14-.7,2.58-1,4.3-.58.59-1.28,1.55-2.17,3.13-.2-.63-.44-1.4-.54-2.57l.15-.13c-.65-.39-1.11.65-1.44,2.2-.39-.06-.78-.15-1.09-.36l-.16-.57c-.17-.12-.28-.14-.35-.08-.05-.12-.09-.25-.12-.4-.13.35-.39,1.04-.71,1.54l.75-3.69.58-.49.63-2.61c.59-1.19,1.48-2.17,1.9-2.31.38-.32-.03.71-.4,1.03,1.99-1.94.07-1.43,1.95-3.73-.08.52.47.04.52.23.3-2.29-2.65,2.05-.82-2.22-1.7,2.14-3.93,4.21-3.43,1.76,1.23-1.46-.94-.12,1.28-3.07-1.23,1.45-.5-1.13-1.84.84.52-.65.8-.44.56.43-.76.62-1.91,2.45-2.05,1.88.15-.34.48-.83.48-.83-1.48,1.41-4.13,6.44-4.97,5.94-1.53.03-.37-1.64,1.22-3.52,1.59-1.88,3.6-3.98,3.87-4.74-1.01,1.47-2.7,2.13-2.19.41l.54-.65c-.58.46-1.71,1.55-.95-.14-1.72,2.43-3.5,4.67-4.74,6.27l-1.22-.22,1.1-1.26c-.59.44-.84.39-1.08.35,1.16-1.97,1.1-1.25,1.89-1.84.96-1.83.73-1.87-.72-.13l.05.19c-.94.92-3.7,3.14-3.42,4.29-1.77,1.49.59-2.45-.41-1.74,1.02-1.62,1.66-1.85,2.29-3.2-.13-.57-.21-.95-1.01-.38-.07.72-1.08,1.44-1.26,2.67-.76.77-1.45.8-1.97,1.61.4-.27.96-.9.54.29-1.06.52-1.61.23-1.26-1.35.27-.36.57-.69.86-.99-2.52,2.31-3.02.93-5.67,3.79l-.25.77c.77-.77,1.16-.64.73.27-1.08.49-1.64,3.14-3.1,4.1-1.72.88.01-2.98-2.85.22.45.85.11,3.4,1.48,2.05l-.36-.46,3.97-3.52c-1.05,1.61,1.59-.38-.18,2.18-.67.21-.98-.04-1.44.03-.69,1.14.56,1.25.71,1.85l.16-1.26c2.27-1.52,2.89-.1,4.77-1.18-1.99,1.62-.34,2.32-2.28,4.13-1.12,1.24-.07-1.12-.37-.45-1.58,2.26.21.79-.74,2.62,1.07-1.44,2.46-1.7,3.09-3.78-.39,1.21,1.73-.76,1.05,1.13,1.64-2.8,1.81-1.3,2.72-2.43.07.25-.13.87-.42,1.58-.89.65-2.05,1.54-3.3,2.5h.01c.09-.55-.23-.79-.52-.11l-.67,1.02c-2.5,1.92-5.12,3.9-6.33,4.7l1.13-1.23c-2.9,2.88-1.29-1.05-3.7.99.36-.47.57-.61.51-.81-.54-1.07-4.05,3.3-3.3.67l1.1-1.41c-.18.14-1.43,1.06-2.48,2.74.97-.12,1.55-.73,1.78.08-1.13,1.19-2.38,1.97-2.74,1.74l-1.82,2.55c-2.35,2.4-.04-1.91-2.39.47l-.67,2.1c-.09.1-.18.13-.27.19.43-.09.88-.28,1.36-.85,1.78-.84-.33,3.14-1.15,4.62-.18,1.1-2.37,3.16-3.41,4.78,1.02-.1,2.94-3,3.93-3.1-.06.45-.47.94-.74,1.17l1.31-1.02c-.52.81.19,2.14-1.69,3.54-.05-.14-.28-.19-.34-.39-.36,2.48-.13,5.61-2.09,8.5.09.99.88-.53,1.13.88,1.73-1.84,2.71-4.24,4.51-5.11l-.02-1.49c-.4.31-.85.75-1.22.98l.88.22c-1.08.67-1.72,1.84-3.15,3.76-1.26-.54.81-4.36.89-5.68,1.38-1.34,1.66-.51,3.1-3.18-.93,2.6,2.01-1.77,1.29.71l-.56.61c1.78-1.63.29.84,1.86-.67-.35.48-.5.83-.64,1.17,1.65-.55.71-1.71,3.19-3.58.57.89-2.39,4.35-2.94,5.72-3.58,2.53-2.66,4.28-6,6.09-2.2,3.43-1.86,4.28-.74,4.38.38-1.81,3.53-4.82,4.33-7.66,2.32-.94,6.4-7.72,5.78-3.73l-.35.49,2.09-2.16-.1,1.86c-2.7,3.36-2.19,1.21-3.87,3.08-1.3,4.23,3.46-2.79,4.35-1.85-1.61,4.72-2.54,1.72-4.66,5.18.77-.77.29,1.39-.4,2.37-.25-1.95-1.97,1.8-1.96-.84,1.29-.83.61-1.18,1.66-2.65-.91,1.12-2.33.98-2.72-.08-1.76,2.41-.66,2.51-.89,3.96,2.64-2.21.54,3.37,3.22.59,1.21.28-1.41,2.51-1.54,2.86.19,1.76,1.68-1.88,2.32-2.3,2.52-1.12-.27,3.92.63,4.69,2.84-2.97,4.14-.64,5.45.38-.86,1.14-1.2,2.2-1.76,3.42,3.55-4.41,2.15-2.59,4.89-5.09l.07-2.24c1.03-.19,3.43-3.31,2.63-.27,1.57-4.96,2.89-2.69,4.21-3.97-.15,2.02,2.29-.96,1.24,2.04l-.2.16.78,1.05-2.34,4.3c-.1,2.05,2.43-.75,2.83-2.19.21,1.51-.5,1.8-1.4,3.9-1.11,1.15-3.97,4.44-2.45.75-.1.36,0,.56.31.05-1.02-3.03-3.36,4.96-4.97,5.54.38.59-.28,2.91.9,2.05.32.05,2.31-1.13,3.63-2.43-1.74,1.6-1.17-.55-.98-2.39.32.61,1.63-1.81,1.35-.17l-.51.67,1.33-1.3c-1.2,2.63.98,1.83-1.36,4.47,1.04-.21,1.4-2.21,2.53-2.81-.29-.53-.58-1.08-.86-1.62l1.39-2.78c1.41-1.67.51.46,1.13.53l1.47-3.15-.35,3.1c.87-2.11,1.2-.97,1.6-1.29-.07,1.48-2.69,6.17-.5,3.83l.09-.36c1-.81,1.58-1.3,1.93-.14-.28.52-.68.85-.87,1.01.3,2.09,4.07-1.95,2.48,2.91-1.19,2.47-.98.82-2.26,3.65.06-4.47-3.21,4.09-4.14.98,2.85-6.35-3.35,2.92-.79-3.47.37,1.17,3.14-2.2,3.31-2.94-.84.04-1.86-.26-2.01-1.13-.56,2.24-2.34,5.65-3.68,7.66,1.95-1.23,2.01,4,3.41,5.33l1.54-3.91c2.61-2.11-1.78,3.51-.77,4.21l1.73-2.6-.08.37,2.3-3.1c-.63-.07-1.59,2.82-1.51.95,0-1.5,1.28-2.84,2.4-4.95-.14,1.31,1.52,1.06-.41,3.3l3.09-3.24c-.62,1.42-1.21,1.93-1.68,2.62l1.33-.24-.27.53c1.55-1.35,2.72-.88,4.47-3.35-.25-3.34,2-2.99,2.74-5.16.33.58-2.24,7.44-4.43,9.67.63-2.36-1.32.25-1.95.2.14,1.69,1.13-.08,1.76-.03-1.11,1.57-.19,2.58-.78,4.02-.52,1.08-2.11,4.29-2.28,2.59-1.02-.65,1.35-3.6.76-3.09,1.24-3.8-1.78.02-2-1.3.08-.37.47-.7.67-.87-.64-.06-1.82-.54-3.01,1.95l2.22-1.28c-.03.93-1.41,2.1-1.59,3.75.6-.5,1.11-.64,1.29.12l-.54,1.07c.01,2.42,1.72,2.22,3.15,1.6,2.5-5.55,4.38-8.74,7.21-14.66,1.45.42,2.82,1.2,3.9,2.9.43-1.22.89-2.4,1.36-3.44-.14,1.65,1.07.77-.03,3.69,1.53-2.71,3.61-4.5,4.39-7.42.07-.05.16-.09.24-.13-.61,3.35-.68,6.11.56,7.28.27.15.99-1.8,1.88-4.6.01.95.04,1.81.29,2.03-.66,1.2-1.38,2.84-1.87,2.84l1.96,1.76-.63,1.28,1.55-1.63c-.76.58-1.28-.49-.11-3.35,1.73-1.84,1.28,1.48,3.37-2.03-1.74,5.35-1.71,6.27-2.99,9.23-.04-.08-.04-.18-.01-.31-1.27,2.79-3.02,5.69-3.81,6.19,1.41,2.42,1.51.4,2.83,2.22-.83,3.15-2.67,2.8-2.94,5.01l-1.18-2.06c.35-.12.62-.81.92-1.26-1.88,1.84-1.35-1.11-3.41,2.14-.06-1.62,1.65-2.07,1.22-2.79.7-.4,2.35-3.7,3.38-6.02-.86-1.66-2.03,3.67-3.57,4.57l.1-2.96c-.68.36-.39,1.66-.67,2.57-.87.55-.42-1.48-.86-1.67-.11.74-.08,1.66-.55,2.77.05-2.59-1.24-1.33-.39-5.9-.33,2.2-2.34,5.11-2.91,5.63l-.06,4.8c2.35-.68,2.84,1.74,5.58.32l-.68,1.65c1.52,6.37,5.34-7.35,8.01-6.65-1.24,4.26,1.41-.21.05,3.87-.72-.54-1.06,1.12-1.43,3.16.93-1.3,2.17-4.28,2.6-2.44-.99,2.05-.72,4.09-1.88,4.65.98,1.29,1.8,1.11,3.53-2.43,3.07-3.08-.74,4.81,1.89,3.23l-.75,1.52,1.43-.24.18-2.23,2.18-2.12c1.55-2.1.38-2.79.97-4.48l-1.16,3.01c-.38-.9-1.98,1.56-1.48-.67,1.1-.2,1.55-2.7,2.28-3.83l-1.26,1.01.37-2.41c-.88-.32-1.41-1.03-2.71,1.43.03,1.28,1.26-2.09,1.09-.24-1.56,3.76-2.8,3.8-4.3,4.74.24-.93-.03-1.3.36-2.04.13-.35.31-.25.37-.06.43-1.74,1.37-2.67.66-4.02,1.19-2.61,3.28-6.91,3.53-7.85.8-.57,1.69-.61,1.87.48l-.2.56c.39.53,2.25-1.98,1.55.83.5-.58,1.58-1.2,1.16-3.01l1.86-1.22c-1.61,4.89-.53,6.29-3.09,9.94.08-.09.77-.53,1.86-1.2-.06.16-.11.3-.17.48-.11.21-.22.47-.35.84-.14-.18-.3.01-.07-.93-1.48,3.4-.97,4.49-.24,5l.95-2.75c.26,1.76.02,4.41,1.26,3.42,1.63-3.31,3.25-6.63,4.83-9.96.26-.16.52-.33.78-.5-.14,1.7,1.09.7-.1,3.89-.23,1.32-.71,1.91-.96,1.19.03-.36.18-.56.21-.93-.55,1.71-1.13,3.78-1.11,5.79-.42-.51-.39-.88-1.06.28l.42.52c-.92.44-3.13,4.11-3.75,6.54,1.14-3.4.75.13,1.02.86-.49.59-1.68,2.33-1.25,2.85.55-1.34,2.48-2.94,1.81-4.55.66-.79,1.66-2.35,1.9-1.25-1,1.55-.92,2.83-1.66,5.11,1.03-1.91,1.62-4.36,1.99-5.5.71,3.26-.19,9.65,2.06,7.62.33-.39-1.26.85-.55-1.43,2.15-3.69.56,4.56,2.01,3.14l.61-3.94c.48-.6,1.41-1.05,1.86-1.29-.2,1.32.3,4.23-.8,5.26,1.29,2.67,3.45-7.92,5.19-6.24-.71-1.22-.86-1.02-1.61-1.14,1.26-1.98.51-1.71,1.19-4.37-.09,2.6,1.9.73.17,3.69.59.32,1.76.92,2.39-.64l-.25-1.45c.87.26,2.25-1.94,3.2-4.65-1.16.14-2.18,5.08-3.48,4.31-.93-3.04.97-2.69.81-6.74l-1.7,2.59.42.51c-1.02,3.8-1.59-.76-2.5,3.96-.29-3.86-1.12-1.74-1.54-5.38-.66,1.54-.23,1.69.05,2.02-.57-.31-1.67,4.23-1.83,1.3-.26-.71-.9,3.22-.15,3.34-.58-.31-1.36.31-1.92-.37v3.14s-.75-.11-.75-.11l.22,1.82c-1.52.16-3.02-.89-2.79-4.96,1.96-2.74,3.68-1.01,5.54-5.82.08-1.48-1.79,3.32-1.13-.99l-1.03,2.67c-.64.79-1.89,1.63-1.28-1.18,1.65-1.74,2.54-4.11,3.69-6.36.15-.59.32-.87.52-.96.01-.03.02-.04.03-.06l-.03.07c.4-.19.87.22,1.34-.39.25.71-.4,2.25-.58,2.82.55,3.82,3.57-4.99,4.45-2.33-.54,2.45.45,3.27-.18,4.45.7.84,1.82-2.05,2.73-3.64-.37,2.25,1.11.96.17,3.29l1.55-3.53c.24,1.45,1.72-.22,1.36,2.4.73-.65.96-3.82,1.49-2.41-.16.57-.17.94-.3.77.11,1.28.96,1.55,1.71-.23-.4-.86.02-.74-.54-1.4.33-1.52,1.5-3.53,1.88-1.55-1.78,3.58.06,3.88-.83,5.85,1.56.71,3.49-4.22,5.49-7.49,1.67-.27,3.34,1.71,5.16-1.4l-.14-.16,1.12-2.04c.41.11-.71,4.01.12,3.12-.85,3.48-1.25.4-2.38,2.83.54,3.61-1.7,3.24-1.44,6.16,1.72-6.95,2.67-.64,4.36-4.27.84.97-.98,2.94-.56,3.44l.7-2.17c.28.7.28,1.44,0,2.97.84,1.34,2.26.36,3.63-2.48-1.39,1.35.95-3.33-.16-3.5.55-1.21,1.38-1.73,2.06-1.69-.82.91.03,5.19-1.22,3.76-.39,3.59.83-.53,1.39.1-.54,1.23-1.65,3.29-1.64,3.66,1.77-4.6,2.68,3.38,3.62.06,1.22-3.02,2.71-5.34,4.04-8.2.45,2.7,1.66,1.15,2.5,2.1l-.39,1.37c.43.85,1.5-.49,2.2.3l-.22,2.65c.67-.69,1.77-.92,2.6-.72.24-1.54-.58-1.37.06-3.17-.41-.11-.82.17-.92,1.85-.42-.1-.06-2.58-.22-3.86l1.88-1.49c.1.2.12.42.09.66l.54-2.84c.41.09.43.83.18,1.99,1.07-.96,1.93-4.68,2.77-3.74-.76,2.39-1.27,3.99-1.95,3.94l1.09.14c-.89,2.61-2.68,1.69-3,6.04,1.47-1.62,3.6-3.93,5.14-7.25.08,3.35,1.48-.5,2.19,1.03.02.73.18,1.64-.19,3.01l-.27.07c1.12.87,2.82-1.17,4.24-3.55l.09,3.34c1.67,1.5.39-5.3,2.4-5.93-.03,3.55,2.08,1.97,1.76,4.83.4-.27.54-.12.88-2.25-.28-.3-1.07.25-.33-2.15.78-.92.83.93,1.37.81-.12.59-.74,2.4-.48,1.97,1.44-1.25,3.75-.85,5.72-6.51-.52.5-.86,2.62-1.31,1.42ZM126.8,61.85c.03-1.32.23-2.64.55-1.01l.07,1.8c.21,1.57.68,1.62,1.21,1.61-.02.56-.04,1.19-.06,1.9-.03,1.3-.11,2.25-.27,2.64.08-.26.22-.18.46.7l-.4,6.4c.53.86.13-4.98.78-3.99.26,3.7.45,5.61.06,8.32-.58-.64-.15-2.15-.54-3.72-.03,4.51-.82-3.74-.82,1.37-.48.33-.54-2.29-.82-3.72.48-.33-.55-3.72.03-4.53-.7-2.17-.06,3.93-.62,2.47l-.39-3.83c-.35-.77-.96-1.96-1.41-1.74.29-1.78.59-3.64.92-5.56.08-.09.17-.19.28-.31l-.04,1.66c.3,2.31.56-.23,1.01-.46ZM124.6,75.8c-.08,1.91-.62,5.56-.6,6.14-.4-1.56-.76-1.1-1.08-3.15l.25-2.83.39,2.4.02-3.09c-.14-.35-.32-.82-.52-1.36.5-1.63.9-3.53,1.27-5.6.39,1.83-.18,2.1.07,4.16-.21-3.35.62-1.03.74.51-.27.76-1.03,1.49-1.34.91l.8,1.91ZM113.64,92.14l-.1-.88s.01-.08.02-.11c-.49.09-.84-.13-1.18-.38.05-1.2.34-1.89.28-2.47l-.59,1.05c.09-2.12-.41-4.05-.21-6.06-.11.37-.23.25-.34.04.37.02.74-.24,1.12-1.4-.02.59-.01,1.31.11,2.58l-.59-.61c.17,4.63.7.74,1.04,2.77.68,4.07-.24,1.41.18,3.82.35-.47.17-2.61.29-3.32.2-.34.42.72.57,2.28-.81-1.7-.02,3.32-.6,2.7ZM113.53,91.26c.15,1.6-.05,1.84-.28,1.94.1-.76.2-1.45.28-1.94ZM94.61,90.39c-.27-.3-.55-.56-.83-.8.23-1.09-.48-6.45.68-3.87.09,1.14.58,3.97.15,4.66ZM93.15,100.25l.14,1.69-.11.24c-.59-.74-1.14-1.42-1.67-2.07.08-.39.16-.72.25-.79-.09-.12-.18-.3-.27-.52.27-.24.52-.32.7-.06.02-1.94-.63-1.69-1.22-1.46-.21-.73-.42-1.57-.59-2.43,1.05-1.62,1.64-2,2.14-2.03l.27,3.18c-.11.17-.22.38-.3.7l.44.92.17,2.08c-.11,0-.21-.02-.3-.1,0,.11.14.35.34.66ZM77,101.52c-.04-.73-.07-1.45-.09-2.16.42-.8.89-1.71,1.38-2.64l.55,3.89c.45-.35-.54-4.27.15-4.4l-.24-.23c0-.07.02-.12.03-.18.19-.36.38-.72.57-1.07.23-.12.5-.11.75-.1,0,.04-.02.07-.03.11-.47,2.25-.54,5.6-.52,9.41-.89-.64-1.69-1.76-2.56-2.62ZM74.96,82.94c-.05-.39-.08-.74-.1-1.08.16-.26.3-.44.45-.57.07,1.25.13,2.43-.35,1.65ZM44.85,72.7l-.02.88c-1.5,2.58-1.38.72-.78-.65.31,1.52.24.17.35-.46.1-.04.2-.07.3-.1.04.08.09.18.15.33ZM48.27,80.18h.33c-.04.23-.14.56-.32.99.01-.27.01-.59-.01-.99ZM114.88,57.67s0-.01,0-.02l.03.57.6-.55c-.03.7.04,1.23-.23,1.99-.29.33-.45.12-.49-.4.03-.51.06-1.04.09-1.6ZM104.53,76.05c-.04.56-.06,1.21-.05,1.98-.05.44-.1.8-.17,1.13-.18.11-.47-.53-.67-1.3l.43-1.03c-.14.28-.29.61-.44.96-.07-.26-.12-.54-.16-.8.03.4.05.74.06,1.03-.23.54-.45,1.12-.66,1.72l.67-1.61c.03,2.42-.84,1.25-.93,3.25-.08.02-.16-.02-.24-.11.15-.49.32-1.01.5-1.54l-.59,1.41c-.65-1.08-1-5.47-1.51-3.84l.57,2.5c-.59,1.05-.82,1.64-1.73.44-.46-3.22.44.72.43-.94l-.72-3.15c.14-.24.26-.49.38-.76.03.23.07.53.12.94-.03-.31-.06-.66-.09-1.01.02-.05.04-.11.06-.16.07.12.1.02.1-.26.21-.57.4-1.19.57-1.83,0,.03.01.05.02.08.12.95-.07,1.31-.15,1.77.49,1.32.72.74.83.02-.38-.38-.47-1.13-.59-2.29.2-.81.38-1.64.57-2.42.24,1.66.46,2.98.59,3.12l-.15-2.7c.07.07.12-.03.17-.18.37,1.37.68,3.21.65,4.8.15-1.29.58-.05.58-2.9-.13,1.72-.34-.51-.55-2.1-.07-.93-.26-2.38-.42-2.92.01-.02.02-.05.03-.07.13.12.3.4.46.75.02.2.07.51.18,1.03.04-.11.05-.27.05-.48.04.11.08.23.12.35-.12.71.2,2.14.29,3.33.05-.19.08-.41.1-.64.02.21.03.4.04.59-.11-3.11.39-2.59.63-3.61l.41,1.57-.44.94c.52,2.74.64.37.92.39.38,1.39-.03,2.14-.23,4.1-.17.41-.33.81-.5,1.22.16-.32.32-.59.46-.79ZM96.3,73.3l-.13-.23c.02-.07.04-.13.06-.2.02.13.04.28.07.43ZM87.11,87.78c-.09-.53-.19-1.06-.28-1.59l.83-.15c.03.11.07.21.1.31-.19.32-.42.86-.65,1.42ZM85.37,92.21c-.24-1.43-.22-1.82-.32-2.87.02-.05.04-.09.06-.14l.42,1.96c0,.22.02.44.02.63-.06.14-.13.28-.18.42ZM69.94,52.91c.06.18.12.38.18.59-.04.02-.07.04-.11.07-.04-.24-.08-.48-.07-.66ZM71.24,52.85c.04.15.07.29.1.42-.13.02-.27.02-.4.03,0-.5.09-.71.3-.45ZM91.22,38.48c.82,1,.23-6.42,1.16-5.06.27,2.6-.21,1.15.02,2.46.38.39-.16-3.74-.01-4.11.04.59.09,1.1.25,1.56.02.4.25.8.4,1.5.08,2.87.15,6.89.26,7.76-.12.35-.28.61-.46.72-.24-1.06-.53-2.49-.26-.17.01.08.03.16.04.23-.17-.02-.35-.19-.51-.57l-.02-.24v-.39s-.02.11-.02.11v-.07c-.14-.13-.28.19-.41.5-.36-1.72-.74-3.74-1.13-5.83.08-.44.16-.86.24-1.24l.46,2.84ZM98.65,37.92l.09,1.43c-.09-2.96.85.1,1.3.84l.05.6c-.05.65-.03,1.44.03,2.25l-1.02-.55-.04-1.42-.36,2.09c.16-.55.49-.38.74.7-.11,1.05-.42.82-.18,3.3-.08,0-.17-.01-.25-.02-.06-.35-.13-.77-.27-1.23-.19-1.32-.22-2.37-.25-3.43l-.67,1.53c-.2-1.5-.33-2.55-.42-4.31.04.05.07.15.1.28-.03-.78-.05-1.57-.05-2.34,0,.04,0,.08.01.13.83,5.38.46-2.29,1.19.13ZM102.96,68.49c-.12-.58-.26-1.1-.41-1.51-.02-.14-.04-.29-.06-.43.08-.09.15-.18.24-.24l.02.02c.07.68.14,1.41.21,2.15ZM102.42,66.63s.06-.05.08-.08c.02.14.03.27.04.38-.04-.11-.08-.21-.12-.29ZM101.98,69.79c0,.07-.01.14-.02.22,0-.06-.02-.11-.02-.17.01-.02.03-.04.04-.05ZM99.56,70.96c-.03-.35-.07-.71-.1-1.07,0,0,0-.01,0-.02.02.09.05.17.07.25.02.26.02.53.02.83ZM95.96,72.23c-.07.04-.16.15-.26.29,0-.06-.01-.13-.02-.2.12-.04.23-.09.32-.17-.01.03-.03.06-.04.08ZM94.08,74c-.07-.24-.14-.42-.21-.56,0-.49-.02-.99-.08-1.53.07.03.13.05.19.08.06.1.11.13.14.06.02.01.05.02.07.03l.09,1.31s0,.01.01.02c-.08.21-.14.41-.21.57ZM86.14,89.45s.06.11.1.21c-.06.04-.09-.02-.1-.21ZM68.45,48.45c-.02.19-.04.35-.07.48-.15-.6-.19-.94.07-.48ZM68.92,57.46c.07-.03.15-.01.27.17l-.04.52c-.08,0-.15-.29-.23-.69ZM86.23,66.08s.04.03.06.05c-.02.03-.04.07-.06.1v-.15ZM101.13,47.4s.03,0,.05,0c.04.33.08.68.12,1.03-.01-.03-.02-.06-.03-.09-.05-.31-.1-.63-.14-.95ZM103.12,64.65c-.02-.28-.04-.56-.08-.84.05-.08.1-.16.15-.25.03.24.05.47.07.67-.04.16-.09.3-.14.42ZM98.71,72.73c.06.76.07,1.26-.19.97.06-.29.13-.63.19-.97ZM99.28,73.28v.07s.02.07.03.11c-.01.04-.03.09-.05.15v-.33ZM102.63,65.17s.01.1.02.14c-.01,0-.03.02-.04.03l.03-.17ZM105.63,58.17c.02-.05.05-.11.07-.16,0,.11,0,.22-.01.33-.03-.05-.04-.11-.06-.17ZM99.74,46.04c-.04-.26-.09-.57-.14-.96.02,0,.03-.02.04-.02.04.3.07.62.1.98ZM98.48,49.36c-.08-.76-.16-1.42-.23-2.02.1.35.19.71.28,1.13-.02.25-.03.54-.04.89ZM87.22,69.89c-.22.19-.43.33-.64.42.03-1.01.15-1.69.36-1.89.09.49.18.97.28,1.46ZM89.2,72.69c-.05-.81.2-.24.55,1.08-.04.17-.09.32-.14.43-.11-.41-.23-.88-.41-1.52ZM89.3,72c-.09-.61-.23-1.3-.37-2,.1-.14.2-.27.3-.32.06.02.12.03.18.03.18.15.38.69.62,2.04-.04.47-.09.86-.14,1.19-.39-1.44-.6-1.94-.6-.95ZM89.3,68.92s-.07-.1-.1-.17c.01-.02.02-.04.03-.06.06.05.11.09.17.14-.04.04-.07.07-.1.09ZM88.14,69.93s-.02.01-.03.02c0-.01.02-.02.02-.04,0,0,0,.01,0,.02ZM90.79,72.06c0,.1,0,.17-.01.22-.02-.07-.04-.15-.06-.23.02-.05.04-.13.05-.25l.02.26ZM88.05,67.82l.22.68c-.03.12-.06.22-.09.31-.06.09-.12.17-.18.25-.03,0-.05.01-.08,0-.12-1.09-.22-.79-.35-1.14l.46.05c.01-.06.02-.1.03-.16ZM86.24,67.32v-.24c.14-.15.27-.27.39-.38.08.42.15.84.23,1.26-.16-.18-.37-.39-.62-.64ZM87.39,67.15s0-.03,0-.04c0,0,0,0,.01.01,0,0,0,.02,0,.03ZM95.32,72.9s0,.03,0,.04c0,0,0-.01,0-.02v-.02ZM95.41,64.83c.12-.22.23-.45.32-.71-.13.27-.24.47-.34.64,0,0,0,0,0-.01-.16-1.11-.33-2.26-.49-2.78-.14-1.53.06-.71.24.15-.06-.55-.04-.99-.07-1.62.04.03.07.06.11.08.31,1.67.6,2.9.88,3.98-.14.35-.28.73-.42,1.1-.07-.27-.15-.54-.22-.81ZM96.47,60.86c-.01.18-.04.23-.07.23l-.23-1.32c.21.38.26-.4.37-.48,0,.02.01.04.02.06v-.07c.05-.02.13.17.26.86.02.18.03.77.03,1.61l-.16-.28c.06.57.11,1.02.16,1.36,0,.49,0,1.02-.01,1.58-.16-1.19-.33-2.36-.36-3.55ZM108.28,66.45s0-.01-.01-.02c0,0,0,.02.01.02-.02.04-.03.09-.05.13,0-.07,0-.14,0-.2.02.01.03.03.05.05-.02-.04-.03-.08-.05-.14-.01-.78.01-1.32.13-1.33.19-.38.31-.2.39.33-.15.39-.31.77-.46,1.16ZM108.75,55.55c.01-.73.03-1.36.13-1.49.03,1.03-.06,1.25-.13,1.49ZM108.67,55.73c0,.07,0,.13,0,.19-.01.12-.02.28-.02.49-.05-.11-.12-.41-.18-.82.06.03.13.07.19.14ZM102.14,41.43c.12-.19.26-.27.45.08l.07,2.86.71-3.18c0-.07,0-.13,0-.19.07-.38.15-.94.26-1.04-.03-1.32.04-2.63.29-.99l.11,1.8c.14,1.26.35,1.55.59,1.62.07.76.13,1.49.18,2.17-.44-1.55-.82-.26-1.13-3.36.01,1.82-.18,3.43-.25,5.05-.34-1.12-.99-2.94-1.07-.54,0,.02,0,.04.01.06-.15-.39-.3-.75-.45-1.05.09-.85.17-1.93.23-3.28ZM90.49,45.45l.21.82-.28.69c-.23-2.54-.59-4.05-.84-5.46.06-.29.13-.58.19-.86.59,3.37.97,5.62.73,4.81ZM80.53,45.29c-.11-.16-.24-.34-.4-.55l-.18-1.22c.25.3.49.59.72.88-.04.33-.09.64-.15.89ZM69.2,55.79l.13.12-.05.65c-.18-.42-.39-1.01-.52-1.51.08-.36.27-.6,0-1.96.05-.04.1-.1.14-.2l.59,1.44c-.17-.59-.34-1.21-.5-1.81.03-.17.04-.38.05-.65-.27-.7-.41-1.26-.48-1.74.93,2.53.31.62-.06-.78,0-.27.02-.51.04-.74.03.05.05.1.08.16.46,1.96.8,3.47,1.2,5-.29.34-.51.94-.61,2.03ZM85.27,92.47c-.01-.23-.02-.48-.04-.75.05.2.09.38.13.54-.03.07-.06.14-.08.21ZM85.46,89.63c.02.4.04.79.06,1.16-.09-.64-.11-1.01-.06-1.16ZM88.94,97.07c-.12-.14-.24-.27-.36-.41l.83-2.56c0,.74-.21,1.78-.47,2.96ZM90.13,98.43c-.13-.15-.26-.3-.39-.45.03-.02.05-.04.09-.07.22.07.29.28.3.52ZM90.11,80.2c.08-.25.18-.59.28-.97.28.96.59,2.17.31.06-.05-.24-.1-.46-.14-.67,0-.03.02-.06.03-.09.26.03.5.04.74,0l.1,1.15c-.54,1.27-1.06,2.16-1.31.54ZM91.97,86.19l.2,2.42c-.3-.12-.59-.22-.89-.29.23-.71.45-1.42.68-2.13ZM96.47,69.69c.04.15.08.31.12.49-.03.11-.06.21-.08.31,0-.25-.01-.51-.04-.8ZM96.67,69.92c-.28-1.47-.54-2.88-.51-3.98-.77-2.25.23,2.12.23,3.07-.14-.91-.38-1.98-.7-3.18.13-.38.26-.76.41-1.14.24.94.47,1.77.7,2.68-.01.76-.03,1.5-.04,2.21-.03.12-.06.23-.09.34ZM85.51,38.96l-.36-1.65c.26.59-.02-1.64.43.37.07.4.34,2.82.62,5.5v.87c-.1.21-.19.43-.29.65-.29-1.13-.65-2.42-1.07-3.82-.18-1.19-.07-1.8.26-1.23.08.35.05.59.13.95-.05-.66-.13-1.37-.22-2.09.17.17.33.33.49.46ZM60.39,57.79s0-.01,0-.02h0s0,.01,0,.02ZM56.08,62.86c-.24,0-.41-.49-.55-1.33.09-.19.19-.38.29-.58l.25,1.91ZM55.18,64.02c-.18.19-.36.38-.55.57-.01-.28-.03-.54-.04-.79.15-.35.15-.43.07-.38-.03.07-.05.13-.07.19,0-.04,0-.08,0-.12.03-.03.06-.05.08-.07.14-.36.36-.84.62-1.38-.05.63-.07,1.35-.1,1.97ZM63.94,78.34c-.04-.2-.08-.4-.1-.6.15.02.22.16.1.6ZM64.68,78.48c-.16.29-.32.56-.46.82-.03-.08-.06-.16-.09-.25l.55-.58ZM64.48,75.05c-.02-.24-.04-.51-.08-.81l.2.59-.12.22ZM68.7,76.08c.06-.17.1-.31.15-.47,0,.02,0,.05,0,.07-.05.13-.1.25-.15.4ZM74.99,76.54c0-.27-.02-.55-.04-.84.06-.05.16.14.27.49-.07.12-.15.23-.23.36ZM83.14,91.71l-.13.16c-.15-.05-.29-.08-.43-.1-.09-1.02-.2-1.61-.48-.52.03-.23-.06-.59-.02-.82-.01-.04-.02-.06-.04-.09.28-.04.54,0,.75.13.11.41.23.82.34,1.23ZM81.16,92.19c-.06-.2-.11-.4-.14-.59.16-.29.3-.55.42-.78-.06.63-.11,1.32-.29,1.37ZM78.98,90.84c-.27.11-.55.21-.83.32.53-1.37.86-2.96,1.26-1.99-.29.78-.4,1.29-.42,1.67ZM85.5,89.56c.06-.05.15.03.27.21-.1.4-.16.73-.19,1-.04-.35-.06-.72-.08-1.21ZM93.69,101.06s0-.03,0-.04c0,0,0,.01.01.02v.02ZM93.05,95.18c.19-.34.11-2.6.53-.81l.04.98c-.19.12-.38.2-.56.35-.02-.25-.02-.43-.01-.52ZM93.74,92.91c.23-.03.49-.11.8-.31-.07,1.78-.4,2.35-.77,2.64.11-.8,0-1.74-.02-2.34ZM94.78,80.87c-.02.97-.61,1.14-.83-.83.31-.97.62-1.93.93-2.9-.07,1.06-.21,1.92-.1,3.73ZM96.47,73.46c-.02-.35-.04-.73-.07-1.15.1-.33.21-.66.31-.99-.02.8-.04,1.48-.05,1.93-.06.09-.13.15-.2.21ZM111.8,69.98c.16,1.24.27,2.69.72,1.45,0,.37.01.75.02,1.08.29-1.37,1.19,0,.95-3.41-.04.03-.13-.1-.25-.34v-.12s-.03.06-.03.06c-.11-.22-.23-.52-.36-.88.3-.59.6-1.14.89-1.65.02.08.04.15.06.23-.12,1.12.14,1.61.52,1.91-.01.3-.02.58-.03.82-.25,0-.4.15-.22,1.41l.17.18c-.02,1.38.03,1.17.06.06.15-.11.06-.98.02-1.58,0-.28,0-.58,0-.88.41.32.95.41,1.24.8-.88,2.99-1.59,3.75-2.27,4.24.31.26.89.47,1.32.69l1.36-5.93c.21-.02.35.01.45.08.06.27.14.51.21.73-.03.26-.12.57-.24.91-.3-1.11-.34-.65-.45-.12.1,0,.23.33.33.47-.54,1.44-1.42,3.21-1.04,3.93.07-.05.14-.12.21-.2.11,1.08.52-.28.7,1.34l-.18,1.64c-.16.34-.36.55-.6.51l.22.29c-.53.46-1.4.36-2.09-3.25-.69-1.55-.11,2.05-.04,4.08-.33-.1-.64-.22-.92-.23.43-1.66-.1-2.16.52-4.75-.59.42-1.17.81-1.84,2.49,0-.12-.02-.24-.03-.38l-.14.82c-.06.17-.13.35-.19.54-.02-2.89-.03-4.13,0-5.08.3-.66.6-1.32.9-1.95ZM116.89,64.28c.62-2.43,1.22-3.47,1.67-3.65v.85c.03-.4.07-.68.12-.88.24-.02.43.23.54.64-.12,3.24-.74,3.09-1.44,4.85,0-.49.03-.96.05-1.43l-.43.51c.06-.71-.06-1.11-.52-.89ZM118.5,59.92c-.3.36-.62.74-1.03,1.37.27-.92.55-2.41,1.03-1.37ZM121.91,69.48c.14.04.29,0,.45-.13-.16.25-.31.35-.43.25,0-.04-.01-.07-.02-.11ZM117.11,77.66c0-.05.01-.11.02-.15-.16.49-.3-.08-.51-.65l.67-3.49c-.43.08-.66,1.39-.95,2.5-.11-1.04-.1-1.57-.06-1.96l.51-.8v-.38s-.43.69-.43.69c.08-.36.16-.75.16-1.59.19-.43.36-.81.52-1.02-.78.65-.68-.39-.39-1.83.19.56.4,1.03.56,1.67-.05.03-.11.08-.17.16.06-.06.11-.09.17-.15.17.71.27,1.63.19,3.13-.03.59.11,2.4.11,3.66-.13.04-.26.1-.42.22ZM116.51,71.87c-.12.72-.22,1.84-.44,1.61l-.03-.55c.16-.34.32-.72.47-1.06ZM110.8,80.78c-.03-.18-.07-.35-.1-.49.05-.03.09-.04.13-.03,0,.19,0,.36-.03.53ZM109.77,77.56c-.02-.13-.04-.27-.06-.43.1-.35.28-.24.48.1-.14.14-.29.27-.42.32ZM111.02,83.18c-.01.09-.03.18-.04.3,0-.11,0-.21,0-.31.01,0,.03.01.04.02ZM116.2,88.45c-.04.35-.06.67-.06.95-.01,0-.03,0-.04,0,.02-.4.05-.74.1-.95ZM117.9,68.1c-.04-.3-.07-.59-.09-.87.28-.53.45-1.33.92-2.76.46.61,1.32-.81,1.93-1.27-.2,1.23-.11,2.86.17,4.16-.08.65-.25,1.09-.31,1.81-.24-.24-.73.91-1.04-1.95.44-.09.37-.45,0-2.24-.21,2.59-1.18,1-.73,5.42-.6.21-.27-.84-.84-2.29ZM116.11,56.38c.28,3.1.3,1.43.47,3.58,0,.06.02.11.03.17-.33-.15-.6-.63-.81-1.31l.32-2.44ZM115.79,58.81c-.11-.34-.2-.73-.27-1.14l.25-.23.02,1.37ZM114,26.82c.12-1.9.36.24.29,1.97-.08-.08-.17-.18-.26-.3,0-.4-.01-.93-.03-1.67ZM111.07,31.24l-.03.8c.08-.05.11-.26.13-.51.11.31.21.43.25-1.02l-.05-.3c.03.08.07.17.11.31.48,1.33.28,3.1.41,5.48-.17-.59-.44-.67-.64-.93.08-.46.17-.86.07-2.46.09,2.11-.25.97-.21,2.2-.12-.31-.17-.85-.08-1.93l-.13,1.08-.06-1.67c.03-1.43.13-1.34.24-1.05ZM59.39,33.88s.05-.07.08-.11c.32.76.8,2.2,1.16,3.01l-.11,1.88c-.11-.16-.19-.36-.27-.58l.31,1.05c-.12-.05-.29-.22-.52-.56.21,1.07.7,2.94.54,3.56.05-.07.11-.13.17-.18.17.91.25,1.58-.04,1.27-.08-.32-.16-.62-.23-.9.05-.04.08-.1.1-.19-.04.05-.08.09-.12.14-.47-1.87-.74-3.08-.52-3.2l-.24.08-.06-2.01-.4-.72c-.02-.33-.06-.71-.16-1.22.03-.4.08-.73.16-.98.08.24.17.56.28,1,.15,0,.2-.28-.14-1.35ZM58.31,56.42s-.01,0-.02-.01v-.03s.02.04.02.04ZM53.12,62.83c-.04-.16-.09-.29-.13-.42.05-.09.11-.18.17-.25-.01.22-.03.44-.04.67ZM37.82,83.05s.32-.51.52-.67c-.99-.52-1.18-.36-2.21-.34l1.04-1.31c.99-2.11-.84-.27-1.57-.45-.83,1.04-1.88,1.94-1.31.36l.99-1.51c.67-1.43.11-1.86-.56-2.29.35-.41.76-.9,1.22-1.47.83-1.02,1.5-1.72,1.92-1.9-.26.14-.38-.03-.14-.94,1.45-1.6,2.89-3.22,4.32-4.84-.12-1.1-3.13,3.93-3.33,2.61,1.91-3.18,2.84-4.86,4.9-6.76.3.96-1.11,1.85-1.57,3.42,2.72-3.63-1.23,3.66,1.8-.48.77.1-.7,2.27-1.21,3.66-.78-.11-1.52,3.46-2.71,3.65-.41,2.32,2.39-3.14,2.22-1.52l-1.77,3.42c-.03,1.27.14,3.7,2.01,1.92.55-2.46,1.5-2.01,2.46-4.02l-.07,2.68.46,1.4c-1.3.23-3.6,1.73-7.41,5.38ZM63.38,98.06c-.51.26-.99.51-1.43.73l.93-2.72c-1.22-1.66-5.05,4.85-6.25,2.81,1.2-2.34,1.3-.7,1.69-1.97-.81-.92-3.38,5.94-3.02,2.09,1.79-.28-.37-1.67,1.9-3.58-1.7,1.66-2.49.88-3-.26-.52-1.15-.77-2.67-1.52-2.52-.43,1.81-1.55,2.29-1.83,2.82-.2-.37.62-1.98.9-1.96.04-1.73.9-3.97,1.92-6.04l1.33.19c-.08-.89.49-2.77.34-3.26h0s0,0,0,0c-.07-.22-.26-.19-.73.34-.6.83-.73,1.23-1.28,2.47-1.13,1.55-2.54,3.43-4.32,5.72l.28-.52-1.6.04.75-1.21-1.79,1.85c1.32-2.82.37-1.43,1.32-3.36.77-2.16.43-2.29-.22-1.92,0-.18,0-.39-.02-.64.06,1.21-.65-.38-.6,1.05,0,0-.01.01-.02.02l-.04-.29-.03.34c-.82.57-1.69,1.15-1.68-.06l.78-1.21c-1.85,2.41-1.84-1.12-2.35-2.25l.3-.52c.54-.41,1.03-1.01,1.44-1.67l-.12,4.12c1.62,1.73.35-9.03,2.06-5.41,0,.15.01.29.03.43-.18.27-.34.8-.6,1.72.29-.35.55-.57.78-.73.08.32.18.63.24.93.03-.52.1-.86.18-1.17.35-.16.66-.23.99-.44.09.83.16,1.7.16,2.37-.12.16-.24.32-.36.48l.35-.05c-.03.42-.1.7-.25.7.38-.01.68-.33.96-.81l2.15-.33c1.09-2.21.42-3.06,1.03-4.74.11.07.22.16.33.28.2.71-.1.96.12,1.42.09-.83.29-1.75.23-2.59.07.61.14,1.41.02,1.52.74-1.69,2.03,2.91,2.3.53.34,1.89-.29,1.31-.09,2.01.05.05.09.09.14.13-.08.17-.17.35-.24.51-.18.3-.37.6-.57.93.22-.31.42-.6.58-.84.34.17.6.13,1.03-1.07l-.13-.27c.72-1.11.59-1.03.04-.22.26-1.41.32-3.74.94-3.82.1,2.56.6,2.7,1.08,3.98-.51,0-1.04.1-1.92,1.96.23,0,.46,2.28-.48,4.05.74-.62.42,1.85.86,1.42.04-2.01,1.03-2.69,1.91-3.57.03,1.09-1.12,2.51-1,3.24l1.1.05-.66-.76,1.49-2.94c-.07.09-.12.16-.2.26-1.96.84,1.7-4.5-.51-3.11.19-.32.36-.65.52-.95-.37.34-.67.36-.96.36.49-2.3,2.03-3.16,2.94-5.14.54,5.04,1.05,2.55,1.68,3.31-1.77,3.13-1.89,3.24-3.25,4.98-.17,2.42.91,1.52,1.98.51,1.07-1,2.1-2.07,1.93.08l-.34.36c2.65-.23,1.16,5.43-.58,11.82ZM66.02,79.55c-1.03.82-.63-3.31-.28-4.3-.34.58-.83-.13-.68-1.28l-.06.12c-.03-.36-.05-.69-.05-.97.08-.14.16-.29.25-.45.64,2.33.38.94.2-.41.11-.24.23-.51.36-.82.13,2.15.2,3.78.39,5.51.05.04.08.07.12.08.05.67.22,1.22-.25,2.53ZM67.54,84.41c1-3.34,2.43-4.33,3.81-5.88.14.31.31.56.5.62.03.3.08.68.11,1.02l.17-2.09c.13-2.7.56-1.67,1.06.17-.6,1.3-1.24,2.72-1.82,3.37l.43-1.64c-.64-2.12-3.52,6.24-4.25,4.44ZM73.51,91.88c-.29-1.29.15-4.31,1.31-6.42-.8,1.07-.8-.28-2.13,2.25,1.76-2.62-2.08,6.26.24,2.71-1.07,4.23-1.72,2.24-1.69.43.5-.56.74-2.03,1.18-3.13-1.25,1.13-1.92,4.24-1.7,5.5l-1.68,1.87s.05.06.07.11c-.43.21-.86.41-1.28.61,1-3.28,1.73-5.43,1.71-4.55l.27-2.37,1.05-.58c.6-2.73-.69-.69-1.06-.87.22-1.99,1.84-2.04,3.68-5.92.16-.27.3-.43.41-.52.15.59.3,1.13.45,1.55-.04.27-.09.54-.16.79.08-.21.16-.41.23-.58.04.11.08.21.12.3l-.06.48c.24.92.46,1.3.68,1.41-.11.17-.22.34-.32.53.1-.13.21-.3.34-.52.53.23.99-1.15,1.36-.23-.55-1.59-.5-1.93-.84-3.68.19-.08.37-.12.55-.17.12.67.23,1.28.29,1.72.33-.26.66-.07.99.12-.23,1.37-.44,2.57.42,1.86l.24-1.61c.23,0,.46-.11.71-.48,0-.21,0-.46,0-.74.66-.32,1.1-.44,1.52.06.1.39.2.77.31,1.18-.21.73-.3.88-.36.78.04-.2.08-.42.1-.56-.08.02-.14.01-.19-.01-.05-.34-.13-.59-.4-.07-.03.05-.07.11-.12.2.02.06.03.11.05.17l-.42,2.97c-.26.03-1.54,2.47-.59-.5-.47,1.48-1.59,3.73-.52,2.75l-1.22,2.08c-.08.37-.13.67-.16.91-.2.09-.4.17-.6.26.11-1.06-.28-1.07.16-3.49.27-.92.7-1.13,1.02-1.51-.06-1.44-.64-1.05-1.12-.47.53.86-.33,2.19-.97,4.77-.82.96-1.36.07-1.85.64ZM93.51,99.49c-.1-.77-.19-1.51-.27-2.16.33-.87.92-1.03,1.48-1.93.03.67.07,1.3.12,1.89-.45,1.07-.92,1.85-1.33,2.19ZM97.36,95.01c.08-.27.17-.52.23-.6-.11.06-.22.2-.33.34-.13-.31-.27-.59-.41-.88l.27-.63c-.11.14-.23.29-.35.46-.14-.29-.29-.56-.44-.83l-.47.86c-.05-.44-.11-.9-.17-1.36.03-.15.05-.29.08-.45-.06-.09-.12-.17-.18-.26-.2-1.44-.35-2.72-.05-3.19.27,0,.26,1.88.39,2.84-.05.16-.11.35-.17.6.19.32.38.63.57.95l.18-.33c.12-.59.03-1.63-.2-1.75.38-.17.75.74,1.1,1.75l-.3.7c.13-.16.26-.3.39-.44.18.51.35,1.03.51,1.43-.19.35-.38.71-.55,1.11-.04-.11-.08-.22-.12-.33ZM105.21,94.78c.1,0,.19-.13.26-.46l-.15,1.78c.26.38.46.35.62.07-.34,1.4-.8,1.18-.91,3.76-.61.09-.26-2.6.17-5.15ZM106.49,93.93c0-.06.02-.11.03-.17l.02.16s-.03,0-.04.01ZM108.29,95.16c0-.2.02-.4.01-.62l-.19-.47.23-3.91c-.15,2.54-1.19,2.57-.8,6.11-.27.1-.47-.33-.57-1.6l.18-.67c-.18.55-.29.32-.42.11.09-2.08.56-2.9.62-3.87-1.05,3.05-1.53-3.25-2.5.14,0-.81.02-1.5.03-2.1.02-.19.04-.39.03-.61v.03c.05-1.64.16-2.74.25-4.33.18-.25.35-.52.53-.8.03.16.05.32.07.5,0-.19,0-.39,0-.6.27-.45.55-.93.83-1.45l.04.18c-.01-.07-.03-.12-.04-.18.03-.05.06-.1.08-.15-.01.11-.03.22-.04.34.17.75.23,1.27.25,1.67l-.31.33.26-.06.05-.07c-.02,1.3-.67,1.31.11,5.15v-2.5c.24,0,.42,1.7.35,2.16.23-.64.23.01.16-1.9.69-.29.77,1.12.9,2.75-.06.08-.11.16-.16.22.07,0,.13.03.18.05.11,1.34.29,2.77.87,3.53-.34.94-.69,1.92-1.02,2.64ZM110.34,90.21c-.05-.64-.05-1.24.08-1.77-.79-1.65-.38.29-.19,1.82-.02,0-.04.01-.06.02-.12.27-.25.6-.39.97,0-.69-.02-1.4-.03-2.14-.23,1.4-.34.86-.44-.27,0-.15-.01-.27-.03-.37-.12-1.37-.24-3.29-.53-4.02,0-1.55.24-.72.42.14-.03-.74.2-1.29.16-2.38.01-.01.03-.03.04-.04.6,4,1.45,5.67,2.1,7.98-.31-.12-.67-.14-1.13.05ZM113.11,98.23c-.17.03-.22-.49-.2-1.27.66-.14,1.49-2.67,2.29-3.26-.71,1.68-1.56,2.7-2.09,4.53ZM129.75,100.77c-.66.31-1.59.32-2.11,3.02l-.29-2.91c-.39,2.12-1.05,4.66-1.45,4.55-.02-5.55-.52,3.8-1.34.65.66-2.17,1.2-3.77,1.59-5.51-.54-.63-.67.69-1.2,1.16.13-1.69,1.19-4.49,1.85-5.55l-.53-1.75c-1.32,3.24-3.46,7.74-4.53,6.45.54-1.95.94-1.84,1.08-4.65-.66.68-2.02,4.28-2.4,2.31.14-.21.14-.58.27-.79-1.76,2.74-.79-.95-1.85-1.49.07-.29.14-.68.23-1l-.49.88-.04-2.36-.02,2.48-.49.9c-2.33,4.68-1.01-3.5-1.49-5.63l.06-.09c.3.65.66,1.28.86,2.29.29-2.49.34-6.64,1.12-6.35.44,2.99.92,8,1.42,8.26l.07-2.72c.5.26.92-2.1,1.4-.17l-.04.24c.68,1.58.28-3.08-.18-3.59l.34-1.88.1.97c.5-2,.69-6.87,1.7-7.75-.02,3.08,1.31,5.65.43,6.67.14-1.53-.42-2.99-.59-4.3-.41-.66-.43,2.68-.55,3.04.27,1.7.53,5.87.56,8.24.24-5.11,2.57-.57,2.02-8.8.89.4,1.84-1.68,2.94-.19-.07-.36-.21-1.08-.23-1.67l1.13,3.49-.13.72.76,2.53c.16,1.32.06,2.62-.14,2.96-.09.47-.3-.61-.21-1.08-.37,2.71.59,1.23.45,4.18-.18-.48-.31.22-.43.1.18.44.31.55.42.49-.19.44-.36.99-.48,1.69.39-1.01.67.8.41,1.96ZM130.15,96.48c.09-.25.17-.46.28-.35-.09.09-.18.2-.28.35Z"/>
      <path class="cls-1" d="M11.71,85.23l-.14.11s.09-.06.14-.11Z"/>
      <path class="cls-1" d="M55.16,114.59s0,0,0,0c0,.01,0,.03-.01.04,0-.01.01-.02.02-.03Z"/>
      <path class="cls-1" d="M51.45,117.21l1-1.26c-.6-.94-1.74,1.03-2.56,2.1.26-.55.33-.91.46-1.64-.99.33-2.67,3.36-3.08,5.56l.65-.89-.53,2.93c2.27-5.19,2.68-1.6,4.43-3.62-1.47,2.11-3.87,6.79-3.41,3.29l-.97,2.73c-.83.13-.31-2.79-1.73-.29l1.03-.31-.58,1.45c.64.03,2.23-1.97,2.12-.16,1.15-1.63,2.65-4.33,3.6-3.23l-.25.55c2.66-4.69,1.13,3.94,2.56,1.98,2.17-4.91-.55-2.62-.19-4.83,1.23-1.8.75,1.15,1.41-1.97,2.02-1.96-.88,4.61,1.32,1.52l-.08-1.47c1.26-2.17,1.47-.53,2.72-2.71,1.29-3.48-.73-.18-1.11-1.66l1.32-2.55-2.64,2.31c-2.07,4.18-1.63,4.37-3.79,7.05.32-2,1.09-4.83,2.02-7.46-1.35,2.5-2.7,3.18-3.69,2.59Z"/>
      <path class="cls-1" d="M65.74,75.25c.03-.06.06-.12.09-.2-.03.03-.06.11-.09.2Z"/>
      <path class="cls-1" d="M16.67,72.68c-.8.73-1.19.25-2.41,2.19,1.43-2.07,1.09.3,2.41-2.19Z"/>
      <path class="cls-1" d="M17.5,70.25c-.33.41-.77,1.07-1.06,1.18l.84-.09.21-1.09Z"/>
      <path class="cls-1" d="M16.44,71.43h-.12s.08.02.12,0Z"/>
      <path class="cls-1" d="M26.8,55.78c-1.36,1.34-2.16,2.07-2.51,1.61,3.39-5.11,1.73-.88,5.22-5.42-.46-1.02-3.81,3.16-4.78,3.1-1.17,2.32-.64,4.5,2.07.7Z"/>
      <polygon class="cls-1" points="31.61 49.69 30.38 50.51 30.21 50.84 31.45 50.01 31.61 49.69"/>
      <path class="cls-1" d="M13.19,101.35c-.96,1.67.4.28.83,0-.09-.2-.05-.77-.83,0Z"/>
      <path class="cls-1" d="M139.13,140.65c-1.37.29-2.61.36-4.8,1.18l4.8-1.18Z"/>
      <path class="cls-1" d="M34,98.77c-2.01,1-4.09,3.63-5.72,3.72-.1,2.13,1.15,1.09,2.35.03,1.2-1.06,2.34-2.14,2.11-.03l1.26-3.71Z"/>
      <path class="cls-1" d="M27.88,108.6l-1.36,3.52c1.46-3.31,2.92-3.26,3.95-5.7-1.24.35-1.97,2.86-2.59,2.18Z"/>
      <polygon class="cls-1" points="49.9 56.92 51.09 55.43 50.54 55.91 49.9 56.92"/>
      <polygon class="cls-1" points="33.26 112.83 33.41 114.16 33.76 112.16 33.26 112.83"/>
      <polygon class="cls-1" points="54.02 50.34 54 49.45 52.99 50.79 54.02 50.34"/>
      <polygon class="cls-1" points="38.24 114.4 38.32 114.04 37.12 115.01 37.04 115.37 38.24 114.4"/>
      <path class="cls-1" d="M54.44,81.63c-.13.07-.26.17-.38.27.07.03.19-.02.38-.27Z"/>
      <path class="cls-1" d="M53.55,81.38c-.23,1.28.07.89.51.52-.23-.11-.02-1.18-.51-.52Z"/>
      <path class="cls-1" d="M48.14,129.55c1.18,0,1.05,1.01,2.56.75-.61-1.33-.68-1.89.13-3.89-.66-.98-1.83,2.54-2.69,3.14Z"/>
      <path class="cls-1" d="M48.14,129.55c-.13,0-.26,0-.42.02.13.12.27.07.42-.02Z"/>
      <path class="cls-1" d="M51.42,130.9c-.79,2.01.48,1.15.34.96-.13-.2-.45-.21-.34-.96Z"/>
      <path class="cls-1" d="M62.6,89.79s0-.09-.02-.11c0,.04.01.08.02.11Z"/>
      <path class="cls-1" d="M62.6,89.79c.04.72-.9,3.88.42,1.16.36-1.16-.29-.8-.42-1.16Z"/>
      <path class="cls-1" d="M57.46,124.44c-.13-.19.09-1.65.79-3.29-.6.91-2.2,4.38-.79,3.29Z"/>
      <polygon class="cls-1" points="64.36 91.87 64.49 91.15 63.46 92.23 64.36 91.87"/>
      <path class="cls-1" d="M65.38,135.38l-.93,1.31.47.61c0-.6,1.13-3.21.46-1.92Z"/>
      <path class="cls-1" d="M65.01,137.41l-.09-.11c0,.1.02.15.09.11Z"/>
      <path class="cls-1" d="M72.03,86.11c-.13.73.39,1.62.96-.22-.21-.36-.47-.34-.96.22Z"/>
      <polygon class="cls-1" points="70.28 131.42 70.32 131.04 69.35 131.44 70.28 131.42"/>
      <polygon class="cls-1" points="72.09 139.08 73.11 137.93 73.17 137.2 72.15 138.35 72.09 139.08"/>
      <path class="cls-1" d="M112.03,139.67c.57-1.21,1-.73,1.15.18.42-1.75.27-3.4.69-5.5-.85-2.45-2.55,6-3.56,4.49.43-2.11,1.14-3.9.29-3.76l.29-.42c-1.72,2.15-.12-4.97-2,.69l.59-3.06c-1.01,2.19-2.16,1.99-2.88,2.29l.15-.58c-2.47,3.15-1.15.55-3.47,1.63l1.63-3.39c-.41-1.61-1.32,2.24-1.75,1.74.13-.48.37-2.1.78-2.91-1.08,1.53-2.16,3.05-3.27,4.55-1.06,2.18-.33,2.27-.5,3.58-.62,1.93-1.48.56-1.15-1.33.31-.78,1.06-1.44.93-2.72l-1.85,4.68c-.52-3.26,2.18-6.2,3.08-7.8-1.02-.87-2.01,2.25-3.24,1.98.27.51.25,1.77.23,2.85-.67,3.43-1.51,1.67-2.39,1.77.21,1.59-.35,2.78-1.03,4.04-.09.09-.18.28-.26.49-.08.16-.16.3-.23.45l.1.02c-.09.38-.16.85-.23,1.5.91-.85.85,2.12,1.3,2.26.71-5.65,1.81-.96,2.73-2.55l.77-.41.25.04c-.07.62-.3,1.37-.9,2.4.54-1.03,1.5-.43,1.76-2.24l2.37.37c.03.24.05.54.02.95.15-.33.22-.62.26-.9l5.16.79,5.1.71c-.42-.53-.63-1.88-1.04-2.59,1.42-3.57-.72-.82.12-4.28Z"/>
      <path class="cls-1" d="M103.92,131.08c.09-.13.19-.26.28-.39-.1.08-.19.22-.28.39Z"/>
      <path class="cls-1" d="M97.49,133.81c.15.13.29.18.43.21-.1-.19-.23-.29-.43-.21Z"/>
      <path class="cls-1" d="M113.65,146.64l-.72-.1c.19.23.41.32.72.1Z"/>
      <path class="cls-1" d="M92.91,139.91c.1,1.67-.81,2.13-1.15,3.27.54.11,1.07.19,1.6.29.25-1.18.68-2.45.88-3.53l-1.33-.03Z"/>
      <path class="cls-1" d="M93.35,145.78c.23-.8.55-1.5.89-2.15l-.87-.15c-.18.88-.26,1.7-.01,2.3Z"/>
      <path class="cls-1" d="M120.85,135.43c.12-.05.24-.08.36-.15-.15-.04-.26.03-.36.15Z"/>
      <path class="cls-1" d="M121.42,138.64c.11-.56.19-1.2.1-1.56l-1.22,3.39.44,1.22c-1.22,3.37-3.24,2.25-3.26.03,1.41-.99,1.49-5.28,2.8-2.73.1-1.09.11-3.03.58-3.56-2.16.92-3.58-1.3-6.27,1.95,1.03,3.73-1.56,2.68-1.82,7.17l1.14-1.3-.28,1.17,1.15-.19c.12-2.07-.02-2.22.39-4.34,1.3,1.08.02,2.6.63,5.47l1.67-.12-.24.62c.14-.02.25-.28.35-.62l5.61-.45c1.25-1.53.07-3.92,1.28-6.94-1.06-.16-2.27-2.4-3.06.8Z"/>
      <path class="cls-1" d="M134.52,138.45l-.07.38c.06-.2.1-.35.07-.38Z"/>
      <path class="cls-1" d="M133.45,139.79l.5-1.96-1.56,4.03,1.52-.12.54-2.91c-.24.72-.97,2.13-1,.96Z"/>
      <path class="cls-1" d="M132.99,138.2c.35-2.49-.72-1.15-.99-.73l-1.09,6.75c.95-1.13,1.42-4.58,1.24-6.21.93-1.49-.18,3.76.84.19Z"/>
      <polygon class="cls-1" points="125.54 141.54 125.97 140.15 125.5 139.69 125.54 141.54"/>
      <path class="cls-1" d="M125.97,140.15l.47.46c.13-1.06.25-2.1.28-2.84l-.75,2.38Z"/>
      <path class="cls-1" d="M128.36,142.48l-.69-.66c.18.29.4.52.69.66Z"/>
      <path class="cls-1" d="M127.15,141.3l.52.52c-.17-.3-.32-.62-.47-.97l-.05.45Z"/>
      <path class="cls-1" d="M126.73,145.03l.42-3.73-.71-.69c-.29,2.42-.58,4.97.29,4.42Z"/>
      <path class="cls-1" d="M123.52,98.39c.19-.78.92-1.66,1.03-3.04l-1.01.85c.18.17.08,1.14-.01,2.2Z"/>
      <path class="cls-1" d="M123.09,96.56l.44-.36c-.08-.08-.21,0-.44.36Z"/>
      <path class="cls-1" d="M123.48,98.89c.01-.17.03-.33.04-.5-.04.17-.07.34-.04.5Z"/>
      <path class="cls-1" d="M129.64,143.53c-.24,1.53.3.68.57.25-.14-.15-.3-.69-.57-.25Z"/>
      <path class="cls-1" d="M145.57,140.93c-.02-.74-.03-1.11-.18-1.26l.18,1.26Z"/>
      <path class="cls-1" d="M156.43,98.62c.05-.3.11-.54.18-.77-.06.18-.12.44-.18.77Z"/>
      <path class="cls-1" d="M157.98,96.79l-.11.59.64-1.08c-.47.11-1.38-.26-1.9,1.56.41-1.24.85.84,1.37-1.07Z"/>
      <path class="cls-1" d="M74.79,20.79c-.04-.16-.07-.3-.12-.52l.23,1.58h0c-.04-.37-.08-.72-.12-1.06Z"/>
      <path class="cls-1" d="M74.62,2.65v3.05c-.2-1.4-.4-.93-.61-2.57,0,.23-.1.82.11,1.52l.1-.11c.52,4.1,1.03,5.62,1.17,8.8.81,2.34.48.11.27-1.76,0-.29.02-.43.04-.59l-.67-5.75-.41-2.59Z"/>
      <path class="cls-1" d="M59.78,36.5l.38,1.27c-.17-.64-.26-1.27-.38-1.27Z"/>
      <path class="cls-1" d="M109.05,20.57c.03.13.07.28.1.4-.03-.23-.06-.33-.1-.4Z"/>
      <path class="cls-1" d="M86.31,21.06l.17.14c-.08-.16-.14-.17-.17-.14Z"/>
      <path class="cls-1" d="M87.22,4.2l.06-1.19c-.08.09-.09.56-.06,1.19Z"/>
      <path class="cls-1" d="M107.27,20.32v-.04c-.02.09-.02.18-.03.27l.03-.23Z"/>
      <path class="cls-1" d="M95.7,14.9c.08.42.16.79.25,1.08-.06-.49-.15-.84-.25-1.08Z"/>
      <path class="cls-1" d="M87.2,4.42s.02.06.03.09c0-.1-.01-.21-.02-.31v.22Z"/>
      <path class="cls-1" d="M82.41,6.91c0,.17-.02.29-.02.51.03-.1.03-.29.02-.51Z"/>
      <path class="cls-1" d="M84.99,21.36v-.51c0,.13-.01.29,0,.51Z"/>
      <path class="cls-1" d="M78.08,12.24l-.07.75c.09-.1.09-.38.07-.75Z"/>
      <path class="cls-1" d="M83.92,17.72c.03.23.06.46.08.68,0-.16-.04-.45-.08-.68Z"/>
      <path class="cls-1" d="M111.11,28.1c.05-.15.1-.29.15-.42-.06-.03-.12.13-.15.42Z"/>
      <path class="cls-1" d="M79.41,7.91c-.03-.14-.06-.28-.09-.43,0,.18.04.33.09.43Z"/>
      <path class="cls-1" d="M95.14,62.1c.03.3.1.64.21,1.06,0,0-.1-.52-.21-1.06Z"/>
      <path class="cls-1" d="M97.66,8.24c-.08-.04-.13.05-.17.19.06.08.12.06.17-.19Z"/>
      <path class="cls-1" d="M103.76,40c-.04-.07-.09-.1-.12-.05,0,.13,0,.27.01.39.06.37.09-.1.11-.34Z"/>
      <path class="cls-1" d="M109.38,22.72v-.17s0,.1,0,.17Z"/>
      <path class="cls-1" d="M88.96,14.74l.03,1.54c.45.61.26-1.63.23-2.93.07.6.15.96.31,1.67.22-.69-.09-4.12-.56-6.27l.04,1.06-.64-2.87c.72,5.62-.4,2.52-.4,5.06-.12-2.51-.65-7.7.16-4.35l-.45-2.86c.23-.45.87,2.41.63-.43l-.24.69-.21-1.55c-.21.23-.16,2.68-.63,1,.09,1.93.36,4.98-.24,4.38l-.07-.6c.46,5.32-1.44-3.11-1.35-.75.68,5.32.9,2.15,1.4,4.29.11,2.12-.55-.73.1,2.35-.09,2.59-1-4.51-.83-.85l.44,1.3c.21,2.48-.32,1.04-.11,3.51.56,3.67.29-.1.82,1.09l.29,2.84.19-3.16c-.5-4.62-.7-4.62-.76-7.91.45,1.94.99,4.81,1.43,7.56-.27-2.81-.03-3.97.44-3.83Z"/>
      <path class="cls-1" d="M88.52,18.6s0,0,0,0c0-.01,0-.03,0-.04,0,.01,0,.02,0,.04Z"/>
      <path class="cls-1" d="M104.7,10.23c-.16-1.91-.19-.02-.25.45.08.12.22.61.25-.45Z"/>
      <path class="cls-1" d="M51.3,20.67c.4-.65.84-1.05,1.37-2.41l-1.37,2.41Z"/>
      <path class="cls-1" d="M99.91,17.22c-1.08-3.78-.35,6.09-1.32,2.21l.61,3.84c.33-1.85.25-5.16.71-6.05Z"/>
      <path class="cls-1" d="M98.22,14.91c.27-.91-.17-3.44.19-3.16l-.53-3.72c.45,3.59,0,4.25.35,6.88Z"/>
      <polygon class="cls-1" points="95.69 10.66 95.29 9.56 95.72 11.48 95.69 10.66"/>
      <polygon class="cls-1" points="93.84 11.91 93.94 10.51 93.87 10.15 93.77 11.56 93.84 11.91"/>
      <path class="cls-1" d="M86.6,2.23c-.37.48-.61-.49-1.01.36.56.96.74,1.44,1.03,3.57.48.62-.13-3.04-.02-3.93Z"/>
      <path class="cls-1" d="M86.6,2.23c.04-.05.08-.1.13-.19-.07-.05-.11.04-.13.19Z"/>
      <polygon class="cls-1" points="101.07 74.78 101.07 74.32 100.84 71.49 101.07 74.78"/>
      <path class="cls-1" d="M85.19,2.34c-.31-2.14-.47-.85-.37-.73.1.12.2,0,.37.73Z"/>
      <path class="cls-1" d="M85.06,10.57c.09.12.43,1.54.67,3.31-.06-1.06-.52-4.84-.67-3.31Z"/>
      <path class="cls-1" d="M79.38,3.49l-.07-1.54-.33-.4c.17.55.55,3.35.4,1.93Z"/>
      <path class="cls-1" d="M78.92,1.49l.06.07c-.03-.09-.05-.13-.06-.07Z"/>
      <polygon class="cls-1" points="79 9.24 79.21 8.53 78.9 8.88 79 9.24"/>
      <polygon class="cls-1" points="76.25 3.11 76.05 2.41 76.04 3.82 76.24 4.52 76.25 3.11"/>
      <path class="cls-1" d="M61.72,14.1c.2,1.29-.12.95-.48.15.43,1.75,1.04,3.23,1.59,5.31,1.12,2.04-1.07-6.28-.2-5.16.54,2.09.87,3.95,1.14,3.58l.03.47c-.08-2.47,1.68,4.6.49-1.2l.79,3.01c-.36-2.33.12-2.47.28-2.96l.14.58c-.14-3.65.23-.85.72-2.51l.51,3.62c.66,1.38-.25-2.46.06-2.12.11.48.54,2.07.66,2.94l-.29-5.19c-.32-2.34-.6-2.21-.96-3.48-.39-1.98.35-.96.83.89.14.82.08,1.66.53,2.8l-.82-4.9c1.22,2.88,1.19,6.42,1.38,8.17.63.51,0-2.69.51-2.8-.26-.39-.65-1.57-.98-2.58-.85-3.39.01-2.01.3-2.36-.58-1.42-.75-2.69-.9-4.07,0-.11-.02-.31-.06-.54-.02-.17-.04-.33-.06-.49l-.04.02c-.09-.38-.21-.84-.39-1.46-.06,1.06-.98-1.72-1.19-1.71,1.53,5.46-.35,1.44-.18,3.19l-.15.61-.1.04c-.17-.6-.33-1.36-.44-2.49.14,1.12-.41.85.08,2.6l-1,.33c-.09-.22-.19-.49-.32-.88.05.35.12.64.2.92l-4.31,1.53c.34.37.87,1.57,1.26,2.11.67,3.72.54.56,1.39,4.02Z"/>
      <path class="cls-1" d="M67.44,19.8l.02.44c0-.1,0-.25-.02-.44Z"/>
      <path class="cls-1" d="M68.84,15.37c-.09-.08-.16-.08-.22-.07.09.15.17.2.22.07Z"/>
      <path class="cls-1" d="M58.77,8.08l.3-.11c-.15-.16-.26-.18-.3.11Z"/>
      <path class="cls-1" d="M68.56,8.32c-.56-1.52-.38-2.23-.61-3.4l-.67.22c.28,1.17.52,2.49.79,3.55l.49-.37Z"/>
      <path class="cls-1" d="M66.56,3c.17.82.27,1.56.36,2.27l.36-.12c-.21-.87-.44-1.66-.72-2.15Z"/>
      <path class="cls-1" d="M59.93,20.5c-.03.08-.06.14-.08.23.07,0,.08-.1.08-.23Z"/>
      <path class="cls-1" d="M57.76,19.25c.45-.14,1.66,1.6.85-1.58.15.55.34,1.16.5,1.47l-.72-3.48-.58-1.01c-.71-3.47.44-2.98,1.21-.92-.19,1.31,1.25,5.31-.11,3.3.34,1.04,1,2.84,1.01,3.46.48-1.44,1.75.23,1.62-3.55-1.63-3.17-.33-2.93-1.74-7.18l.02,1.54-.29-1.17-.36.51c.65,1.95.76,2.05,1.32,4.14-.84-.63-.89-2.41-2.08-4.89l-.59.58-.12-.64c-.05.06,0,.33.08.67l-1.96,1.97c.07,1.77,1.35,3.65,1.95,6.78Z"/>
      <path class="cls-1" d="M53.72,21.05c.05.2.09.35.11.37l-.11-.37Z"/>
      <path class="cls-1" d="M53.74,19.9l.53,1.95-.88-4.14-.53.52.86,2.83c-.18-.73-.41-2.23.03-1.15Z"/>
      <path class="cls-1" d="M54.49,21.25c.77,2.39.69.87.63.41l-2.03-6.53c.05,1.3,1.13,4.61,1.78,6.07.19,1.63-1.29-3.52-.38.05Z"/>
      <polygon class="cls-1" points="56.07 16.11 56.4 17.52 56.74 17.82 56.07 16.11"/>
      <path class="cls-1" d="M56.4,17.52l-.34-.3c.33,1.02.65,2.01.9,2.7l-.56-2.4Z"/>
      <path class="cls-1" d="M54.68,16.03l.49.42c-.17-.22-.34-.37-.49-.42Z"/>
      <path class="cls-1" d="M55.69,17.22l-.14-.43-.38-.33c.17.23.34.49.52.77Z"/>
      <path class="cls-1" d="M56.06,17.22c-.75-2.32-1.54-4.76-1.68-4.01l1.17,3.56.51.44Z"/>
      <path class="cls-1" d="M53.82,15.41c-.46-1.48-.36-.54-.3-.08.11.1.36.55.3.08Z"/>
      <path class="cls-1" d="M48.77,22.18c.29.67.44,1.01.55,1.11l-.55-1.11Z"/>
    </g>
  </g>
</svg>